<svg width="102" height="33" viewBox="0 0 102 33" fill="none" xmlns="http://www.w3.org/2000/svg">
<path d="M27.1023 10.8516L27.1136 10.876L27.1023 10.8516Z" fill="#2C96AF"/>
<path d="M5.47141 11.9086C5.24424 14.5595 6.50907 16.835 9.46419 18.5908C10.6731 19.1845 11.9352 19.6634 13.2337 20.0212C14.3528 20.3112 15.2191 20.4563 15.8326 20.4563C16.1811 20.4563 16.3928 20.4101 16.4679 20.3196C16.5438 20.224 16.5834 20.1046 16.5796 19.9827C16.5796 19.9347 16.567 19.8876 16.543 19.846C16.4813 19.7756 16.4042 19.7202 16.3178 19.6843C16.1436 19.5942 15.9642 19.5145 15.7806 19.4456C15.54 19.3551 15.2127 19.2338 14.7969 19.0856C12.7742 18.4194 11.3104 17.6629 10.4056 16.8158C9.97691 16.4401 9.63352 15.977 9.39844 15.4577C9.16336 14.9384 9.04203 14.3749 9.04258 13.8048C9.04258 11.8604 9.73115 10.3274 11.1083 9.20563C12.4854 8.08391 14.4747 7.52304 17.0763 7.52304C17.8495 7.52414 18.6217 7.58205 19.3865 7.69631C20.1472 7.80774 20.8997 7.96981 21.6389 8.18145C22.3334 8.37974 23.0149 8.62085 23.6796 8.90339C24.2778 9.15557 24.8568 9.4509 25.4122 9.78703C26.1149 10.1836 27.0698 10.8093 27.0813 10.817C26.0386 8.80297 24.4622 7.11439 22.5245 5.93588C20.5868 4.75737 18.3624 4.13429 16.0944 4.13477C12.1902 4.13477 8.75958 5.72687 6.57645 8.58188C5.90265 9.4559 5.53494 11.1654 5.47141 11.9086Z" fill="#253779"/>
<path d="M22.5996 14.4342C21.7103 13.9071 20.7731 13.4655 19.8004 13.1155C18.9128 12.7825 17.9742 12.606 17.0263 12.5938C16.6951 12.5938 16.4795 12.6438 16.3794 12.7439C16.3343 12.7847 16.2979 12.8342 16.2724 12.8895C16.2469 12.9447 16.2329 13.0046 16.2312 13.0654C16.235 13.1249 16.2565 13.1818 16.2928 13.2291C16.3585 13.308 16.4389 13.3734 16.5296 13.4216C16.6947 13.5101 16.8651 13.5886 17.0397 13.6564C17.2631 13.7488 17.5659 13.8528 17.9484 13.9683C19.9044 14.5972 21.3803 15.3313 22.3763 16.1707C23.3722 17.0101 23.8689 18.024 23.8663 19.2124C23.8779 20.0944 23.7123 20.9697 23.3793 21.7864C23.0578 22.5552 22.5544 23.2343 21.9123 23.7654C21.1853 24.3497 20.3478 24.7812 19.45 25.0341C18.3292 25.35 17.1683 25.5005 16.004 25.4808C14.3534 25.488 12.7078 25.2973 11.1025 24.9128C9.59589 24.5537 8.14101 24.0045 6.77286 23.2784C6.77286 23.2784 5.56963 22.5584 4.88428 21.7383C5.76437 23.6351 7.11275 25.2767 8.80244 26.5086C10.4921 27.7404 12.4675 28.522 14.5427 28.7796C16.6178 29.0373 18.7243 28.7626 20.664 27.9814C22.6036 27.2001 24.3125 25.9381 25.6298 24.3141C26.731 22.9665 27.6243 19.455 25.3025 16.8869C24.492 15.9749 23.5858 15.1526 22.5996 14.4342Z" fill="#2C96AF"/>
<path d="M16.0019 32.5C12.8373 32.5004 9.74372 31.5623 7.11228 29.8045C4.48084 28.0466 2.42978 25.5479 1.21849 22.6243C0.00718913 19.7007 -0.309938 16.4836 0.307208 13.3797C0.924354 10.2759 2.44805 7.42481 4.68562 5.18698C6.92318 2.94915 9.7741 1.4251 12.8779 0.807584C15.9816 0.190065 19.1988 0.506803 22.1225 1.71775C25.0462 2.92869 27.5452 4.97945 29.3034 7.61068C31.0616 10.2419 32 13.3354 32 16.5C31.9954 20.7417 30.3085 24.8084 27.3093 27.808C24.3102 30.8075 20.2437 32.4949 16.0019 32.5ZM16.0019 2.54838C13.2425 2.548 10.5449 3.36592 8.2503 4.89872C5.95571 6.43151 4.16719 8.61032 3.11093 11.1596C2.05467 13.7089 1.77811 16.5142 2.31622 19.2206C2.85433 21.9271 4.18294 24.4132 6.13403 26.3646C8.08513 28.316 10.5711 29.6449 13.2775 30.1834C15.9839 30.7219 18.7892 30.4457 21.3386 29.3898C23.8881 28.3339 26.0671 26.5457 27.6002 24.2513C29.1333 21.9569 29.9516 19.2595 29.9516 16.5C29.9476 12.8014 28.4766 9.25539 25.8615 6.63989C23.2463 4.0244 19.7005 2.55296 16.0019 2.54838Z" fill="#2C96AF"/>
<path d="M14.6465 19.6438L15.0508 17.8823L16.3753 19.1125L17.6998 20.3446L15.971 20.874L14.2422 21.4054L14.6465 19.6438Z" fill="#253779"/>
<path d="M17.8673 13.308L17.3167 15.0291L16.1 13.693L14.8833 12.355L16.6506 11.97L18.4179 11.585L17.8673 13.308Z" fill="#2C96AF"/>
<path d="M32.9146 30.4669L33.7212 25.9062L39.7797 20.7738L41.264 19.5397C41.637 19.2219 42.0299 18.928 42.4402 18.6599C42.1063 18.72 41.7686 18.756 41.4295 18.7677C40.979 18.7908 40.5228 18.8024 40.0646 18.8024H35.4577L36.3125 13.8374H51.5886L50.8051 18.4L44.7235 23.5306C44.169 23.9888 43.6743 24.4001 43.2392 24.7646C42.8706 25.0789 42.485 25.3726 42.0841 25.6444C42.418 25.5844 42.7558 25.5484 43.0948 25.5366C43.5453 25.5135 44.0015 25.5019 44.4597 25.5019H49.5441L48.6643 30.4669H32.9146Z" fill="#253779"/>
<path d="M60.7563 30.4669L60.5907 28.5418H56.6461L55.8144 30.4669H49.4248L57.6452 13.8374H64.8723L67.1998 30.4669H60.7563ZM60.2519 24.2005C60.2365 23.5672 60.223 23.0127 60.2153 22.5391C60.2076 22.0655 60.2038 21.6324 60.2038 21.2435C60.2038 20.8546 60.2038 20.5081 60.2153 20.1981C60.2269 19.8882 60.2365 19.584 60.2519 19.2837C60.0774 19.8702 59.8361 20.5986 59.528 21.4687C59.22 22.3389 58.8838 23.2495 58.5193 24.2005H60.2519Z" fill="#253779"/>
<path d="M68.239 30.467L71.1845 13.8375H77.9226C79.0114 13.8269 80.0971 13.9563 81.153 14.2225C82.0485 14.442 82.8897 14.8423 83.6249 15.3988C84.3058 15.9298 84.8475 16.6182 85.2035 17.4048C85.5938 18.3036 85.7843 19.2764 85.7618 20.256C85.7618 22.1709 85.4807 23.7784 84.9186 25.0785C84.4256 26.2788 83.6712 27.3541 82.7104 28.2262C81.8105 29.0197 80.748 29.607 79.5975 29.9472C78.4537 30.2931 77.2655 30.4696 76.0706 30.4709L68.239 30.467ZM79.0199 22.3814C79.1068 21.8951 79.1545 21.4026 79.1624 20.9086C79.1624 20.0866 78.991 19.4994 78.6522 19.151C78.3134 18.8025 77.8167 18.6292 77.166 18.6292H76.8349L75.5989 25.6599H76.1225C76.4624 25.6631 76.8013 25.6237 77.1313 25.5425C77.4426 25.461 77.7261 25.2967 77.9514 25.067C78.2204 24.7783 78.4297 24.4394 78.5675 24.0697C78.7758 23.5263 78.9286 22.9632 79.0238 22.3891L79.0199 22.3814Z" fill="#253779"/>
<path d="M95.0585 30.4669L94.891 28.5418H90.9483L90.1167 30.4669H83.7271L91.9456 13.8374H99.1668L101.496 30.4669H95.0585ZM94.5599 24.2005C94.5432 23.5665 94.531 23.0127 94.5233 22.5391C94.5156 22.0655 94.5118 21.6337 94.5118 21.2435C94.5118 20.8585 94.5156 20.51 94.5233 20.1981C94.5233 19.8901 94.5426 19.584 94.5599 19.2837C94.3841 19.8702 94.1422 20.5986 93.8341 21.4687C93.5261 22.3389 93.1899 23.2495 92.8254 24.2005H94.5599Z" fill="#253779"/>
<path d="M38.2241 5.08177V6.50061H40.492V7.96373H38.2241V11.1345H36.7302V3.60132H42.1053V5.07406L38.2241 5.08177Z" fill="#2C96AF"/>
<path d="M47.5571 11.1346L46.968 9.45777H44.2151L43.624 11.1346H42.0107L44.8985 3.60913H46.3616L49.2205 11.1346H47.5571ZM45.9669 6.66243C45.888 6.44104 45.8149 6.22542 45.7455 6.01751C45.6762 5.80959 45.6262 5.63247 45.5896 5.49001C45.555 5.6344 45.503 5.80959 45.4337 6.01751C45.3644 6.22542 45.2931 6.44104 45.2142 6.66243L44.731 8.0293H46.4502L45.9669 6.66243Z" fill="#2C96AF"/>
<path d="M54.769 11.1345L53.4213 8.42583H51.9043V11.1345H50.4104V3.60138H53.9046C54.2431 3.59932 54.58 3.64865 54.9037 3.74769C55.2072 3.83765 55.489 3.98902 55.7315 4.19241C55.9708 4.39682 56.1616 4.65199 56.2898 4.93937C56.4326 5.27033 56.5022 5.62823 56.4939 5.98858C56.5148 6.478 56.3895 6.96256 56.1339 7.38047C55.8699 7.76181 55.4918 8.04961 55.0539 8.20251L56.4939 11.1268L54.769 11.1345ZM54.9615 6.03863C54.9753 5.90227 54.9566 5.76459 54.9071 5.6368C54.8576 5.509 54.7786 5.3947 54.6766 5.30322C54.4458 5.14275 54.1678 5.06475 53.8872 5.08183H51.9101V7.01661H53.8776C54.5938 7.01661 54.9519 6.69062 54.9519 6.03863H54.9615Z" fill="#2C96AF"/>
<path d="M63.8555 11.1347V8.37205C63.8555 8.27194 63.8555 8.1436 63.8555 7.98702C63.8555 7.83044 63.8555 7.66873 63.8555 7.50188C63.8555 7.33888 63.8555 7.18487 63.8555 7.03984C63.8555 6.89738 63.8555 6.78957 63.8555 6.71834C63.7996 6.8608 63.7207 7.05139 63.6245 7.29589C63.5282 7.54038 63.4319 7.75793 63.328 7.97355L61.8187 11.3021L60.2959 7.96007C60.1957 7.74445 60.1033 7.51921 60.0013 7.28241L59.7703 6.70486C59.7703 6.77609 59.7703 6.8839 59.7703 7.02636C59.7703 7.16883 59.7703 7.32477 59.7703 7.4884C59.7703 7.65204 59.7703 7.81568 59.7703 7.97355C59.7703 8.13141 59.7703 8.26039 59.7703 8.35857V11.1212H58.3264V3.60151H59.7761L61.3431 7.00904C61.3932 7.11685 61.4433 7.23043 61.4933 7.34787C61.5434 7.4653 61.5915 7.58274 61.6377 7.69825L61.7667 8.01975C61.8052 8.11986 61.836 8.20264 61.8572 8.26617C61.9072 8.12371 61.9784 7.93312 62.0728 7.68862C62.1671 7.44412 62.2653 7.22081 62.3635 7.00519L63.8824 3.59766H65.3552V11.1231L63.8555 11.1347Z" fill="#2C96AF"/>
<path d="M72.5342 11.1345L71.9432 9.45766H69.1902L68.5992 11.1345H66.9897L69.8775 3.60132H71.3406L74.1995 11.1268L72.5342 11.1345ZM70.9421 6.66232C70.8632 6.44093 70.79 6.22531 70.7226 6.01739C70.6553 5.80948 70.6033 5.63236 70.5667 5.4899C70.5301 5.63429 70.4781 5.80948 70.4108 6.01739C70.3434 6.22531 70.2702 6.44093 70.1913 6.66232L69.7061 8.02918H71.4272L70.9421 6.66232Z" fill="#2C96AF"/>
<path d="M79.846 5.8019C79.7238 5.55913 79.5407 5.35219 79.3147 5.20125C79.061 5.04792 78.7676 4.97292 78.4715 4.98563C78.2098 4.98143 77.9511 5.04229 77.7187 5.16274C77.4956 5.28118 77.3036 5.45072 77.1585 5.65751C77.0007 5.88622 76.8847 6.14107 76.8158 6.41025C76.7333 6.72436 76.6932 7.04808 76.6965 7.37283C76.6943 7.69053 76.7344 8.00712 76.8158 8.31423C76.8857 8.58585 77.0038 8.84274 77.1643 9.07275C77.312 9.28116 77.5048 9.45358 77.7284 9.57714C77.9588 9.70418 78.2179 9.77044 78.4811 9.76965C78.7792 9.78238 79.074 9.70379 79.3262 9.54441C79.5845 9.34739 79.7984 9.09812 79.9538 8.81285L81.2225 9.56559C80.9894 10.0744 80.6187 10.5079 80.1521 10.8169C79.6375 11.1314 79.0414 11.2867 78.4387 11.2636C77.975 11.2712 77.5152 11.1779 77.0911 10.9902C76.6923 10.8095 76.338 10.5433 76.0535 10.2105C75.751 9.85212 75.5226 9.43726 75.3816 8.98996C75.2172 8.47024 75.1372 7.92751 75.1448 7.38245C75.1389 6.84733 75.2228 6.31501 75.3931 5.80767C75.5415 5.3592 75.7748 4.9435 76.0804 4.58327C76.3702 4.2456 76.7294 3.9744 77.1335 3.78818C77.5563 3.59543 78.0164 3.49815 78.4811 3.50326C78.8061 3.49877 79.1302 3.54025 79.4437 3.62647C79.7163 3.70172 79.976 3.81791 80.2137 3.97107C80.4367 4.11474 80.636 4.29203 80.8048 4.49664C80.975 4.70319 81.121 4.92863 81.2398 5.16852L79.846 5.8019Z" fill="#2C96AF"/>
<path d="M82.6626 11.1345V3.60132H84.1565V11.1268L82.6626 11.1345Z" fill="#2C96AF"/>
<path d="M91.0255 11.1345L90.4326 9.45766H87.6815L87.0905 11.1345H85.4714L88.3592 3.60132H89.8204L92.6792 11.1268L91.0255 11.1345ZM89.4334 6.66232C89.3545 6.44093 89.2813 6.22531 89.2139 6.01739C89.1466 5.80948 89.0927 5.63236 89.058 5.4899C89.0214 5.63429 88.9695 5.80948 88.9021 6.01739C88.8347 6.22531 88.7596 6.44093 88.6807 6.66232L88.1975 8.02918H89.9185L89.4334 6.66232Z" fill="#2C96AF"/>
<path d="M99.1285 8.85527C99.1334 9.18914 99.0752 9.52093 98.9571 9.83325C98.8427 10.1262 98.6583 10.3866 98.42 10.5918C98.1504 10.8166 97.837 10.9831 97.4998 11.0808C97.0685 11.2032 96.6215 11.2609 96.1733 11.2521C95.5801 11.2607 94.9925 11.1357 94.4542 10.8863C93.9688 10.6695 93.552 10.3239 93.249 9.88716L94.3348 8.92458C94.5726 9.21401 94.8772 9.44129 95.2223 9.58683C95.5523 9.71813 95.9048 9.78353 96.26 9.77935C96.6022 9.80279 96.9446 9.73642 97.2534 9.58683C97.3582 9.52178 97.4432 9.42925 97.4992 9.31929C97.5552 9.20933 97.58 9.08614 97.571 8.96308C97.5738 8.85358 97.5514 8.7449 97.5055 8.64543C97.449 8.5416 97.366 8.4546 97.2649 8.39324C97.1049 8.29584 96.9327 8.22009 96.7528 8.16799C96.5314 8.09483 96.2446 8.01975 95.8942 7.94082C95.5714 7.86873 95.2537 7.77548 94.9432 7.66167C94.6735 7.56624 94.4207 7.42847 94.1943 7.25354C93.9862 7.08671 93.8206 6.87295 93.7111 6.62979C93.5883 6.33356 93.5299 6.01465 93.5397 5.69416C93.5343 5.37373 93.6062 5.05673 93.7496 4.77009C93.8884 4.49919 94.0857 4.26249 94.3271 4.07703C94.5821 3.88055 94.8712 3.73303 95.18 3.64194C96.0366 3.39614 96.9518 3.45325 97.7712 3.80365C98.2209 4.0178 98.6275 4.31275 98.9706 4.67383L97.8829 5.71919C97.6587 5.48266 97.3948 5.2872 97.1032 5.14164C96.8116 5.00861 96.4938 4.94281 96.1733 4.94912C96.0026 4.9451 95.8321 4.96519 95.667 5.0088C95.5474 5.03998 95.4345 5.09283 95.334 5.16474C95.2531 5.21897 95.187 5.29239 95.1414 5.37843C95.1069 5.45666 95.0892 5.54127 95.0895 5.62678C95.0859 5.73307 95.1098 5.83848 95.1588 5.93288C95.2175 6.02727 95.3016 6.1033 95.4013 6.15235C95.5477 6.23123 95.7027 6.29262 95.8634 6.33524C96.0559 6.39299 96.3023 6.45845 96.6046 6.52775C96.9068 6.59706 97.2052 6.68369 97.5017 6.77995C97.79 6.87194 98.0621 7.00834 98.3083 7.18423C98.5745 7.36936 98.7888 7.61965 98.9307 7.91119C99.0726 8.20273 99.1374 8.52579 99.1188 8.8495L99.1285 8.85527Z" fill="#2C96AF"/>
</svg>
