<svg width="19" height="19" viewBox="0 0 19 19" fill="none" xmlns="http://www.w3.org/2000/svg">
<path d="M1.6001 5.69995C0.900098 5.69995 0.300049 6.29997 0.300049 6.99997V17.7C0.300049 18.4 0.900061 18.9 1.50006 18.9H1.6001C2.3001 18.9 2.80005 18.3 2.80005 17.7V6.99997C3.00005 6.29997 2.4001 5.69995 1.6001 5.69995Z" fill="#253779"/>
<path d="M1.70001 0C0.700012 0 0 0.799982 0 1.69998C0 2.59998 0.800012 3.39999 1.70001 3.39999C2.70001 3.39999 3.40002 2.59998 3.40002 1.69998C3.40002 0.799982 2.70001 0 1.70001 0Z" fill="#253779"/>
<path d="M17.1001 18.9987C17.9001 18.9987 18.4001 18.3987 18.4001 17.7987V11.5987C18.4001 7.79871 16.7001 5.69873 13.4001 5.39873C9.80009 5.09873 8.50009 6.79873 8.40009 6.89873L8.1001 7.29872V6.09871C8.1001 5.89871 8.00005 5.79872 7.80005 5.79872H5.90009C5.70009 5.79872 5.6001 5.89871 5.6001 6.09871V17.7987C5.6001 18.4987 6.20005 18.9987 6.80005 18.9987C7.40005 18.9987 8.00006 18.3987 8.00006 17.7987V12.4987C8.00006 8.29873 10.2001 7.49873 12.1001 7.49873C15.7001 7.49873 15.7001 11.0987 15.7001 12.6987V17.8987C15.8001 18.3987 16.4001 18.9987 17.1001 18.9987Z" fill="#253779"/>
</svg>
