<svg width="56" height="66" viewBox="0 0 56 66" fill="none" xmlns="http://www.w3.org/2000/svg">
<path d="M42.5109 1.69754C41.5259 2.88629 42.2221 4.80527 43.6486 6.79217L39.9805 11.1566C38.5374 10.9232 37.0585 11.0663 35.687 11.5721C34.3155 12.0778 33.0978 12.9291 32.1518 14.0435L10.4316 39.6865C9.10047 41.2679 8.39191 43.2806 8.4388 45.3472C8.4857 47.4137 9.28482 49.3923 10.6864 50.9117L0.242379 63.3426C0.0644426 63.5597 -0.0210173 63.838 0.00439723 64.1176C0.0298118 64.3971 0.164042 64.6555 0.378213 64.837C0.571722 64.9899 0.810908 65.0736 1.05754 65.0747C1.21006 65.0762 1.36095 65.0434 1.49909 64.9787C1.63723 64.914 1.75911 64.8192 1.8557 64.7011L12.3506 52.2702C14.0925 53.3935 16.185 53.8409 18.2339 53.5281C20.2828 53.2153 22.1466 52.1639 23.4739 50.572L45.177 24.8611C46.626 23.1426 47.3344 20.9197 47.1469 18.6796C47.086 17.9971 46.9434 17.3243 46.7224 16.6757L50.3905 12.3114C50.7595 12.5082 51.1394 12.684 51.5283 12.8378C52.2271 13.1382 52.9758 13.3053 53.736 13.3303C54.0715 13.3501 54.4071 13.2949 54.7186 13.1686C55.03 13.0422 55.3093 12.848 55.5361 12.6C57.0984 10.732 54.4662 7.02991 51.3415 4.39769C48.2168 1.76546 44.1241 -0.22145 42.5448 1.6296L42.5109 1.69754ZM49.949 6.07893C52.9039 8.57529 53.9228 10.732 53.8718 11.2924C53.1333 11.2904 52.4079 11.0974 51.7661 10.732L51.885 10.5792C51.9759 10.4755 52.044 10.3539 52.0849 10.2223C52.1259 10.0907 52.1387 9.95191 52.1227 9.81498C52.1152 9.67802 52.0797 9.54403 52.0184 9.42134C51.9571 9.29866 51.8712 9.18988 51.7661 9.10174L46.6714 4.78827C46.5663 4.6985 46.4442 4.63071 46.3124 4.58887C46.1806 4.54703 46.0418 4.53198 45.9041 4.54464C45.7664 4.5573 45.6326 4.59742 45.5107 4.66259C45.3887 4.72777 45.281 4.81669 45.194 4.92413L45.0751 5.05999C44.6004 4.48963 44.2841 3.80438 44.1581 3.07309C44.6845 2.93723 46.9771 3.56558 49.949 6.07893ZM45.0072 18.9174C45.0848 19.7524 44.9941 20.5945 44.7403 21.3937C44.4865 22.193 44.0748 22.9332 43.5297 23.5705L42.9863 24.2158L41.1183 22.6365C41.0393 22.5704 40.948 22.5205 40.8496 22.4898C40.7512 22.4592 40.6478 22.4482 40.5452 22.4577C40.4426 22.4672 40.3429 22.4968 40.2518 22.545C40.1607 22.5932 40.0801 22.6589 40.0145 22.7384C39.9461 22.8164 39.8944 22.9075 39.8624 23.0061C39.8304 23.1048 39.8188 23.2089 39.8283 23.3122C39.8379 23.4154 39.8683 23.5157 39.9178 23.6068C39.9673 23.6979 40.0349 23.778 40.1164 23.8422L41.9674 25.4215L40.1333 27.5952L36.7369 24.7592C36.6589 24.6921 36.5685 24.6411 36.4708 24.609C36.373 24.5769 36.2699 24.5645 36.1673 24.5724C36.0648 24.5803 35.9648 24.6083 35.8731 24.655C35.7814 24.7016 35.6998 24.7659 35.6331 24.8441C35.4965 25.0044 35.4289 25.2121 35.4448 25.422C35.4607 25.632 35.5589 25.8271 35.718 25.965L39.1144 28.801L37.0936 31.1954L35.2255 29.6161C35.0656 29.481 34.8586 29.4149 34.65 29.4324C34.4414 29.45 34.2483 29.5496 34.1132 29.7095C33.9781 29.8694 33.912 30.0764 33.9295 30.285C33.947 30.4936 34.0467 30.6867 34.2066 30.8218L36.0746 32.4012L35.1576 33.488L34.2405 34.5749L30.8441 31.7389C30.6976 31.5927 30.4992 31.5105 30.2922 31.5105C30.0853 31.5105 29.8867 31.5927 29.7403 31.7389C29.6038 31.8991 29.5361 32.1068 29.552 32.3168C29.5679 32.5267 29.6661 32.7218 29.8252 32.8597L33.2216 35.6957L31.6763 37.5298L29.8082 35.9504C29.7302 35.8821 29.6391 35.8304 29.5404 35.7984C29.4418 35.7663 29.3377 35.7548 29.2344 35.7643C29.1311 35.7738 29.0309 35.8043 28.9398 35.8538C28.8487 35.9033 28.7686 35.9709 28.7044 36.0523C28.6373 36.1303 28.5862 36.2207 28.5542 36.3185C28.5221 36.4162 28.5096 36.5193 28.5175 36.6219C28.5254 36.7244 28.5535 36.8244 28.6001 36.9161C28.6468 37.0078 28.711 37.0894 28.7893 37.1561L30.6573 38.7355L28.8232 40.9092L25.4268 38.0732C25.2803 37.927 25.0819 37.8449 24.8749 37.8449C24.668 37.8449 24.4694 37.927 24.323 38.0732C24.1865 38.2335 24.1188 38.4411 24.1347 38.6511C24.1506 38.861 24.2488 39.0562 24.4079 39.194L27.8043 42.03L25.7155 44.5943L23.8475 43.015C23.6876 42.8799 23.4806 42.8138 23.272 42.8313C23.0634 42.8488 22.8703 42.9485 22.7352 43.1084C22.6 43.2683 22.534 43.4753 22.5515 43.6839C22.569 43.8925 22.6687 44.0856 22.8286 44.2207L24.6966 45.8001L22.8625 47.9738L19.4661 45.1378C19.3882 45.0706 19.2977 45.0196 19.2 44.9875C19.1022 44.9554 18.9991 44.943 18.8966 44.9509C18.794 44.9588 18.694 44.9868 18.6023 45.0335C18.5106 45.0801 18.4291 45.1444 18.3623 45.2226C18.215 45.372 18.1325 45.5733 18.1325 45.7831C18.1325 45.9928 18.215 46.1941 18.3623 46.3435L21.7587 49.1795L21.6738 49.2814C21.1331 49.9228 20.4714 50.4513 19.7264 50.8369C18.9814 51.2224 18.1677 51.4574 17.3319 51.5284C16.496 51.5993 15.6544 51.5049 14.855 51.2505C14.0557 50.996 13.3143 50.5866 12.6733 50.0456C11.3819 48.9511 10.5765 47.3898 10.4333 45.7031C10.2901 44.0164 10.8207 42.3416 11.9091 41.0451L25.24 25.2347L33.6122 15.3342C34.1515 14.6903 34.8137 14.1604 35.5602 13.7755C36.3066 13.3906 37.1223 13.1584 37.9596 13.0925H38.503C40.1033 13.0956 41.644 13.6994 42.8202 14.7844C43.9965 15.8694 44.7224 17.3566 44.8543 18.9514L45.0072 18.9174ZM44.1241 12.9737C43.5347 12.4706 42.8772 12.0533 42.1712 11.734L46.111 7.08086L49.5924 10.0188L45.6695 14.6888C45.2326 14.0512 44.7129 13.4744 44.1241 12.9737Z" fill="#FBFBFB"/>
<path d="M24.2378 25.3876L35.0724 34.3882C35.7517 34.9655 36.7706 33.9806 36.0403 33.4202L25.2058 24.4027C24.5265 23.8423 23.5076 24.8102 24.2378 25.3876Z" fill="#FBFBFB"/>
</svg>
