<svg width="56" height="57" viewBox="0 0 56 57" fill="none" xmlns="http://www.w3.org/2000/svg">
<path d="M13.9469 22.6369C13.7759 22.812 13.6599 23.0333 13.6133 23.2736C13.5666 23.5138 13.5914 23.7625 13.6845 23.9889C13.7776 24.2152 13.935 24.4093 14.1371 24.5473C14.3393 24.6853 14.5774 24.761 14.8221 24.7652C15.1587 24.7625 15.4804 24.6266 15.7171 24.3873C15.9455 24.1532 16.0734 23.8391 16.0734 23.5121C16.0734 23.185 15.9455 22.8709 15.7171 22.6369C15.4752 22.416 15.1595 22.2936 14.8319 22.2936C14.5044 22.2936 14.1888 22.416 13.9469 22.6369ZM15.2795 23.9497C15.158 24.0629 14.998 24.1259 14.8319 24.1259C14.6658 24.1259 14.5059 24.0629 14.3844 23.9497C14.3267 23.8924 14.2809 23.8242 14.2497 23.7491C14.2184 23.674 14.2022 23.5934 14.2022 23.5121C14.2022 23.4307 14.2184 23.3502 14.2497 23.2751C14.2809 23.2 14.3267 23.1318 14.3844 23.0745C14.442 23.0173 14.5103 22.9721 14.5854 22.9414C14.6604 22.9106 14.741 22.895 14.8221 22.8955C14.9462 22.8907 15.0688 22.9236 15.1739 22.9897C15.2791 23.0559 15.3618 23.1522 15.4113 23.2662C15.4607 23.3801 15.4746 23.5063 15.4511 23.6283C15.4276 23.7502 15.3678 23.8623 15.2795 23.9497Z" fill="#FBFBFB"/>
<path d="M16.7914 19.8126C16.563 20.0467 16.4351 20.3608 16.4351 20.6878C16.4351 21.0149 16.563 21.3289 16.7914 21.563C17.0255 21.7914 17.3395 21.9193 17.6666 21.9193C17.9936 21.9193 18.3077 21.7914 18.5418 21.563C18.7702 21.3289 18.898 21.0149 18.898 20.6878C18.898 20.3608 18.7702 20.0467 18.5418 19.8126C18.4286 19.6947 18.2927 19.6009 18.1423 19.5368C17.9919 19.4727 17.8301 19.4396 17.6666 19.4396C17.5031 19.4396 17.3413 19.4727 17.1909 19.5368C17.0405 19.6009 16.9046 19.6947 16.7914 19.8126ZM18.1041 21.1254C18.0468 21.1832 17.9787 21.229 17.9036 21.2602C17.8285 21.2915 17.7479 21.3076 17.6666 21.3076C17.5852 21.3076 17.5046 21.2915 17.4295 21.2602C17.3544 21.229 17.2862 21.1832 17.2289 21.1254C17.1702 21.068 17.1233 20.9995 17.091 20.9239C17.0587 20.8483 17.0416 20.7671 17.0406 20.6849C17.0397 20.6027 17.0551 20.5211 17.0857 20.4448C17.1163 20.3686 17.1615 20.299 17.219 20.2403C17.2764 20.1815 17.3449 20.1346 17.4205 20.1023C17.4961 20.07 17.5774 20.0529 17.6596 20.052C17.7417 20.0511 17.8233 20.0663 17.8996 20.0969C17.9759 20.1275 18.0454 20.1729 18.1041 20.2303C18.2174 20.3518 18.2804 20.5118 18.2804 20.6779C18.2804 20.844 18.2174 21.0039 18.1041 21.1254Z" fill="#FBFBFB"/>
<path d="M20.3121 19.2755C20.4744 19.2763 20.6353 19.2451 20.7855 19.1837C20.9357 19.1223 21.0722 19.0318 21.1873 18.9175C21.4195 18.6854 21.5499 18.3705 21.5499 18.0423C21.5499 17.714 21.4195 17.3992 21.1873 17.1671C20.9552 16.9349 20.6404 16.8045 20.3121 16.8045C19.9839 16.8045 19.669 16.9349 19.4369 17.1671C19.319 17.2803 19.2252 17.4162 19.1611 17.5666C19.097 17.717 19.064 17.8788 19.064 18.0423C19.064 18.2057 19.097 18.3675 19.1611 18.5179C19.2252 18.6683 19.319 18.8042 19.4369 18.9175C19.55 19.0346 19.6863 19.1269 19.837 19.1885C19.9876 19.2502 20.1494 19.2798 20.3121 19.2755ZM19.8547 17.6047C19.9153 17.546 19.9869 17.5 20.0654 17.4692C20.144 17.4385 20.2278 17.4237 20.3121 17.4256C20.3933 17.4252 20.4738 17.4408 20.5489 17.4715C20.624 17.5023 20.6922 17.5475 20.7498 17.6047C20.8075 17.662 20.8533 17.7301 20.8846 17.8052C20.9158 17.8804 20.932 17.9609 20.932 18.0423C20.932 18.1236 20.9158 18.2042 20.8846 18.2793C20.8533 18.3544 20.8075 18.4226 20.7498 18.4799C20.6283 18.5931 20.4683 18.6561 20.3022 18.6561C20.1361 18.6561 19.9762 18.5931 19.8547 18.4799C19.7969 18.4226 19.7512 18.3544 19.7199 18.2793C19.6886 18.2042 19.6724 18.1236 19.6724 18.0423C19.6724 17.9609 19.6886 17.8804 19.7199 17.8052C19.7512 17.7301 19.7969 17.662 19.8547 17.6047Z" fill="#FBFBFB"/>
<path d="M11.9379 21.8613C12.1018 21.8606 12.2638 21.8268 12.4142 21.7619C12.5646 21.6969 12.7003 21.6022 12.8132 21.4833C13.0416 21.2493 13.1694 20.9352 13.1694 20.6081C13.1694 20.2811 13.0416 19.967 12.8132 19.7329C12.5757 19.5032 12.2583 19.3748 11.928 19.3748C11.5977 19.3748 11.2802 19.5032 11.0428 19.7329C10.8707 19.9093 10.7544 20.1324 10.7085 20.3745C10.6625 20.6166 10.6891 20.8668 10.7846 21.0939C10.8801 21.3211 11.0404 21.515 11.2456 21.6515C11.4507 21.7879 11.6916 21.8609 11.9379 21.8613ZM11.4804 20.1705C11.541 20.1119 11.6127 20.0658 11.6912 20.0351C11.7698 20.0044 11.8536 19.9896 11.9379 19.9915C12.0191 19.9911 12.0995 20.0067 12.1746 20.0374C12.2497 20.0681 12.3179 20.1134 12.3755 20.1705C12.4652 20.2593 12.5266 20.3727 12.5518 20.4963C12.5769 20.62 12.5646 20.7483 12.5167 20.8651C12.4687 20.9818 12.3872 21.0816 12.2824 21.1519C12.1775 21.2221 12.0542 21.2596 11.928 21.2596C11.8018 21.2596 11.6784 21.2221 11.5736 21.1519C11.4688 21.0816 11.3871 20.9818 11.3392 20.8651C11.2912 20.7483 11.2791 20.62 11.3042 20.4963C11.3293 20.3727 11.3906 20.2593 11.4804 20.1705Z" fill="#FBFBFB"/>
<path d="M13.8875 16.8291C13.659 17.0631 13.5312 17.3772 13.5312 17.7043C13.5312 18.0313 13.659 18.3454 13.8875 18.5795C14.1215 18.8079 14.4356 18.9358 14.7627 18.9358C15.0897 18.9358 15.4038 18.8079 15.6379 18.5795C15.87 18.3474 16.0004 18.0325 16.0004 17.7043C16.0004 17.376 15.87 17.0612 15.6379 16.8291C15.4058 16.5969 15.0909 16.4666 14.7627 16.4666C14.4344 16.4666 14.1196 16.5969 13.8875 16.8291ZM15.2003 18.1419C15.1429 18.1994 15.0746 18.2449 14.9995 18.276C14.9244 18.3071 14.8439 18.3231 14.7627 18.3231C14.6814 18.3231 14.6009 18.3071 14.5258 18.276C14.4507 18.2449 14.3826 18.1994 14.3251 18.1419C14.2677 18.0844 14.2221 18.0162 14.191 17.9411C14.1599 17.866 14.1439 17.7855 14.1439 17.7043C14.1439 17.623 14.1599 17.5425 14.191 17.4674C14.2221 17.3924 14.2677 17.3241 14.3251 17.2667C14.3793 17.2036 14.4464 17.153 14.5219 17.1183C14.5974 17.0836 14.6795 17.0657 14.7627 17.0657C14.8458 17.0657 14.9279 17.0836 15.0034 17.1183C15.0789 17.153 15.1462 17.2036 15.2003 17.2667C15.2712 17.3268 15.327 17.4025 15.3634 17.488C15.3998 17.5735 15.4157 17.6663 15.4099 17.759C15.4041 17.8517 15.3767 17.9418 15.33 18.0221C15.2832 18.1024 15.2184 18.1706 15.1406 18.2214L15.2003 18.1419Z" fill="#FBFBFB"/>
<path d="M17.4083 16.3714C17.5706 16.3722 17.7314 16.3411 17.8816 16.2796C18.0317 16.2182 18.1684 16.1277 18.2835 16.0134C18.5157 15.7813 18.6461 15.4664 18.6461 15.1382C18.6461 14.8099 18.5157 14.4951 18.2835 14.263C18.0514 14.0308 17.7366 13.9005 17.4083 13.9005C17.0801 13.9005 16.7652 14.0308 16.5331 14.263C16.4152 14.3762 16.3214 14.5121 16.2573 14.6625C16.1932 14.8129 16.1602 14.9747 16.1602 15.1382C16.1602 15.3017 16.1932 15.4635 16.2573 15.6139C16.3214 15.7643 16.4152 15.9001 16.5331 16.0134C16.6483 16.1277 16.7848 16.2182 16.935 16.2796C17.0851 16.3411 17.2461 16.3722 17.4083 16.3714ZM16.9507 14.7006C17.0764 14.5873 17.2391 14.5236 17.4083 14.5215C17.4895 14.5211 17.5699 14.5367 17.6449 14.5675C17.72 14.5982 17.7883 14.6434 17.8459 14.7006C17.9036 14.7579 17.9495 14.8261 17.9807 14.9012C18.012 14.9763 18.0281 15.0568 18.0281 15.1382C18.0281 15.2195 18.012 15.3001 17.9807 15.3752C17.9495 15.4503 17.9036 15.5185 17.8459 15.5758C17.7883 15.6366 17.7189 15.685 17.6419 15.7181C17.565 15.7512 17.4821 15.7682 17.3984 15.7682C17.3146 15.7682 17.2317 15.7512 17.1547 15.7181C17.0778 15.685 17.0084 15.6366 16.9507 15.5758C16.893 15.5185 16.8473 15.4503 16.816 15.3752C16.7847 15.3001 16.7686 15.2195 16.7686 15.1382C16.7686 15.0568 16.7847 14.9763 16.816 14.9012C16.8473 14.8261 16.893 14.7579 16.9507 14.7006Z" fill="#FBFBFB"/>
<path d="M8.25802 16.9284C8.06584 17.1682 7.9686 17.4703 7.98461 17.7772C8.00063 18.0842 8.12886 18.3745 8.34495 18.593C8.56103 18.8116 8.84982 18.9431 9.15654 18.9626C9.46326 18.9821 9.76644 18.8881 10.0084 18.6987C10.2381 18.4613 10.3666 18.1439 10.3666 17.8135C10.3666 17.4832 10.2381 17.1658 10.0084 16.9284C9.77437 16.7 9.46028 16.5721 9.13323 16.5721C8.80618 16.5721 8.49209 16.7 8.25802 16.9284ZM9.5709 18.2611C9.51481 18.3306 9.44474 18.3874 9.36524 18.4281C9.28573 18.4687 9.19859 18.4921 9.10943 18.4969C9.02028 18.5016 8.93104 18.4875 8.84768 18.4555C8.76432 18.4236 8.68864 18.3744 8.62551 18.3113C8.56238 18.2482 8.51325 18.1725 8.48128 18.0891C8.44932 18.0058 8.43527 17.9166 8.44001 17.8275C8.44474 17.7383 8.46822 17.6511 8.50884 17.5716C8.54946 17.4921 8.60631 17.4221 8.67577 17.366C8.80145 17.2527 8.96404 17.1891 9.13323 17.187C9.21436 17.1866 9.29488 17.2022 9.36997 17.2329C9.44506 17.2636 9.51332 17.3088 9.5709 17.366C9.68415 17.4875 9.74705 17.6474 9.74705 17.8135C9.74705 17.9796 9.68415 18.1396 9.5709 18.2611Z" fill="#FBFBFB"/>
<path d="M11.9576 16.2123C12.1199 16.2132 12.2807 16.182 12.4308 16.1205C12.581 16.0591 12.7177 15.9686 12.8328 15.8543C12.9507 15.7411 13.0446 15.6052 13.1087 15.4548C13.1727 15.3044 13.2058 15.1426 13.2058 14.9791C13.2058 14.8156 13.1727 14.6538 13.1087 14.5034C13.0446 14.353 12.9507 14.2171 12.8328 14.1039C12.7182 13.9884 12.5818 13.8968 12.4316 13.8342C12.2814 13.7717 12.1203 13.7395 11.9576 13.7395C11.7949 13.7395 11.6337 13.7717 11.4835 13.8342C11.3333 13.8968 11.197 13.9884 11.0824 14.1039C10.854 14.338 10.7261 14.652 10.7261 14.9791C10.7261 15.3061 10.854 15.6202 11.0824 15.8543C11.1976 15.9686 11.3341 16.0591 11.4843 16.1205C11.6344 16.182 11.7953 16.2132 11.9576 16.2123ZM11.5199 14.5415C11.5773 14.4838 11.6454 14.4379 11.7205 14.4067C11.7956 14.3754 11.8763 14.3593 11.9576 14.3593C12.039 14.3593 12.1195 14.3754 12.1946 14.4067C12.2697 14.4379 12.3378 14.4838 12.3952 14.5415C12.4554 14.5973 12.5035 14.6651 12.5363 14.7404C12.5692 14.8157 12.5862 14.8969 12.5862 14.9791C12.5862 15.0613 12.5692 15.1425 12.5363 15.2178C12.5035 15.2931 12.4554 15.3608 12.3952 15.4167C12.2791 15.5328 12.1217 15.598 11.9576 15.598C11.7935 15.598 11.636 15.5328 11.5199 15.4167C11.4039 15.3006 11.3387 15.1432 11.3387 14.9791C11.3387 14.815 11.4039 14.6575 11.5199 14.5415Z" fill="#FBFBFB"/>
<path d="M14.6036 13.5867C14.7678 13.5885 14.9306 13.5557 15.0814 13.4906C15.2321 13.4255 15.3675 13.3295 15.4788 13.2088C15.711 12.9767 15.8414 12.6618 15.8414 12.3336C15.8414 12.0053 15.711 11.6905 15.4788 11.4584C15.2467 11.2263 14.9319 11.0959 14.6036 11.0959C14.2754 11.0959 13.9605 11.2263 13.7284 11.4584C13.6105 11.5716 13.5167 11.7075 13.4526 11.8579C13.3885 12.0083 13.3555 12.1701 13.3555 12.3336C13.3555 12.4971 13.3885 12.6589 13.4526 12.8093C13.5167 12.9597 13.6105 13.0956 13.7284 13.2088C13.8397 13.3295 13.9753 13.4255 14.126 13.4906C14.2768 13.5557 14.4394 13.5885 14.6036 13.5867ZM14.1661 11.896C14.2234 11.8382 14.2915 11.7924 14.3667 11.7612C14.4418 11.7299 14.5223 11.7138 14.6036 11.7138C14.685 11.7138 14.7656 11.7299 14.8407 11.7612C14.9158 11.7924 14.984 11.8382 15.0413 11.896C15.099 11.9533 15.1448 12.0215 15.1761 12.0966C15.2073 12.1717 15.2235 12.2522 15.2235 12.3336C15.2235 12.4149 15.2073 12.4955 15.1761 12.5706C15.1448 12.6457 15.099 12.7139 15.0413 12.7712C14.9252 12.8872 14.7678 12.9524 14.6036 12.9524C14.4395 12.9524 14.2822 12.8872 14.1661 12.7712C14.05 12.6551 13.9848 12.4977 13.9848 12.3336C13.9848 12.1694 14.05 12.012 14.1661 11.896Z" fill="#FBFBFB"/>
<path d="M39.2682 47.9585C39.0459 48.1967 38.9185 48.508 38.9102 48.8337C38.9106 49.161 39.0391 49.4752 39.2682 49.7089C39.3833 49.8302 39.5222 49.9264 39.6762 49.9914C39.8303 50.0565 39.9961 50.089 40.1633 50.0869C40.4922 50.0817 40.8058 49.9473 41.0366 49.7129C41.2673 49.4784 41.3966 49.1627 41.3965 48.8337C41.3882 48.508 41.2608 48.1967 41.0385 47.9585C40.8011 47.7288 40.4837 47.6004 40.1533 47.6004C39.823 47.6004 39.5056 47.7288 39.2682 47.9585ZM40.6008 49.2713C40.5432 49.3321 40.4738 49.3805 40.3969 49.4136C40.3199 49.4467 40.2371 49.4638 40.1533 49.4638C40.0696 49.4638 39.9866 49.4467 39.9097 49.4136C39.8327 49.3805 39.7633 49.3321 39.7057 49.2713C39.6456 49.216 39.5985 49.1481 39.5676 49.0725C39.5366 48.9968 39.5227 48.9153 39.5268 48.8337C39.5268 48.6702 39.5917 48.5134 39.7073 48.3977C39.8229 48.2821 39.9799 48.2171 40.1434 48.2171C40.2277 48.2152 40.3115 48.23 40.3901 48.2607C40.4686 48.2914 40.5403 48.3375 40.6008 48.3961C40.658 48.4537 40.7033 48.522 40.734 48.5971C40.7647 48.6722 40.7803 48.7526 40.7799 48.8337C40.784 48.9153 40.7701 48.9968 40.7391 49.0725C40.7082 49.1481 40.661 49.216 40.6008 49.2713Z" fill="#FBFBFB"/>
<path d="M42.1122 45.1339C41.8838 45.368 41.7559 45.6821 41.7559 46.0091C41.7559 46.3362 41.8838 46.6503 42.1122 46.8843C42.3463 47.1127 42.6603 47.2406 42.9874 47.2406C43.3144 47.2406 43.6285 47.1127 43.8626 46.8843C44.091 46.6503 44.2189 46.3362 44.2189 46.0091C44.2189 45.6821 44.091 45.368 43.8626 45.1339C43.7494 45.016 43.6135 44.9222 43.4631 44.8581C43.3127 44.794 43.1509 44.761 42.9874 44.761C42.8239 44.761 42.6621 44.794 42.5117 44.8581C42.3613 44.9222 42.2254 45.016 42.1122 45.1339ZM43.4249 46.4467C43.3089 46.5628 43.1515 46.628 42.9874 46.628C42.8233 46.628 42.6659 46.5628 42.5498 46.4467C42.4338 46.3307 42.3685 46.1733 42.3685 46.0091C42.3685 45.845 42.4338 45.6876 42.5498 45.5715C42.604 45.5085 42.6711 45.4579 42.7466 45.4232C42.8222 45.3885 42.9043 45.3705 42.9874 45.3705C43.0705 45.3705 43.1526 45.3885 43.2281 45.4232C43.3037 45.4579 43.3708 45.5085 43.4249 45.5715C43.4827 45.6288 43.5286 45.697 43.5598 45.7721C43.5911 45.8472 43.6072 45.9278 43.6072 46.0091C43.6072 46.0905 43.5911 46.171 43.5598 46.2461C43.5286 46.3212 43.4827 46.3894 43.4249 46.4467Z" fill="#FBFBFB"/>
<path d="M44.7382 42.4885C44.5097 42.7225 44.3818 43.0366 44.3818 43.3637C44.3818 43.6907 44.5097 44.0048 44.7382 44.2389C44.9803 44.4674 45.3003 44.5954 45.6333 44.5969C45.7955 44.5977 45.9563 44.5666 46.1065 44.5051C46.2567 44.4437 46.3933 44.3532 46.5085 44.2389C46.7369 44.0048 46.8647 43.6907 46.8647 43.3637C46.8647 43.0366 46.7369 42.7225 46.5085 42.4885C46.2711 42.2588 45.9537 42.1304 45.6233 42.1304C45.293 42.1304 44.9756 42.2588 44.7382 42.4885ZM46.0708 43.8013C46.0134 43.86 45.9449 43.9069 45.8693 43.9392C45.7937 43.9715 45.7126 43.9886 45.6304 43.9896C45.5482 43.9905 45.4665 43.9752 45.3902 43.9446C45.3139 43.914 45.2444 43.8687 45.1857 43.8112C45.1269 43.7538 45.0801 43.6853 45.0477 43.6097C45.0154 43.5341 44.9983 43.4529 44.9974 43.3707C44.9964 43.2885 45.0118 43.2069 45.0424 43.1306C45.073 43.0544 45.1182 42.9848 45.1757 42.9261C45.3014 42.8128 45.4641 42.7491 45.6333 42.747C45.7557 42.7464 45.8755 42.7822 45.9775 42.85C46.0795 42.9177 46.159 43.0142 46.206 43.1273C46.2529 43.2403 46.2651 43.3648 46.241 43.4848C46.217 43.6049 46.1577 43.715 46.0708 43.8013Z" fill="#FBFBFB"/>
<path d="M36.3634 45.0543C36.1411 45.2924 36.0137 45.6038 36.0054 45.9295C36.0054 46.2618 36.1374 46.5806 36.3724 46.8156C36.6074 47.0506 36.9262 47.1826 37.2585 47.1826C37.4227 47.1844 37.5855 47.1516 37.7362 47.0865C37.887 47.0214 38.0224 46.9254 38.1337 46.8047C38.3628 46.5709 38.4913 46.2568 38.4918 45.9295C38.4834 45.6038 38.356 45.2924 38.1337 45.0543C37.8963 44.8246 37.5789 44.6962 37.2486 44.6962C36.9182 44.6962 36.6008 44.8246 36.3634 45.0543ZM37.6962 46.387C37.5747 46.5002 37.4147 46.5632 37.2486 46.5632C37.0825 46.5632 36.9226 46.5002 36.8011 46.387C36.7424 46.3264 36.6963 46.2547 36.6656 46.1762C36.6348 46.0977 36.62 46.0138 36.622 45.9295C36.6216 45.8483 36.6372 45.7679 36.6679 45.6928C36.6986 45.6177 36.7439 45.5494 36.8011 45.4919C36.9267 45.3786 37.0893 45.3149 37.2585 45.3128C37.4221 45.3128 37.579 45.3778 37.6946 45.4935C37.8102 45.6091 37.8751 45.7659 37.8751 45.9295C37.8771 46.0138 37.8623 46.0977 37.8315 46.1762C37.8008 46.2547 37.7548 46.3264 37.6962 46.387Z" fill="#FBFBFB"/>
<path d="M40.0835 44.3381C40.2457 44.3389 40.4066 44.3077 40.5568 44.2463C40.707 44.1849 40.8435 44.0944 40.9587 43.9801C41.1908 43.7479 41.3212 43.4331 41.3212 43.1049C41.3212 42.7766 41.1908 42.4618 40.9587 42.2296C40.7266 41.9975 40.4117 41.8671 40.0835 41.8671C39.7552 41.8671 39.4404 41.9975 39.2083 42.2296C38.9798 42.4637 38.8521 42.7778 38.8521 43.1049C38.8521 43.4319 38.9798 43.746 39.2083 43.9801C39.3234 44.0944 39.46 44.1849 39.6102 44.2463C39.7604 44.3077 39.9212 44.3389 40.0835 44.3381ZM39.6459 42.6672C39.7001 42.6042 39.7672 42.5536 39.8427 42.5189C39.9182 42.4842 40.0003 42.4662 40.0835 42.4662C40.1666 42.4662 40.2488 42.4842 40.3243 42.5189C40.3999 42.5536 40.467 42.6042 40.5211 42.6672C40.5828 42.7224 40.6323 42.7898 40.6666 42.8651C40.7008 42.9405 40.719 43.0221 40.72 43.1049C40.7134 43.2711 40.6421 43.4282 40.5211 43.5425C40.4638 43.6002 40.3957 43.646 40.3206 43.6773C40.2455 43.7085 40.1648 43.7247 40.0835 43.7247C40.0021 43.7247 39.9216 43.7085 39.8465 43.6773C39.7714 43.646 39.7032 43.6002 39.6459 43.5425C39.5888 43.4849 39.5435 43.4166 39.5127 43.3415C39.482 43.2664 39.4664 43.186 39.4668 43.1049C39.4668 43.0267 39.4827 42.9494 39.5135 42.8776C39.5442 42.8058 39.5894 42.741 39.6459 42.6871V42.6672Z" fill="#FBFBFB"/>
<path d="M42.7287 41.7126C43.0589 41.7068 43.3734 41.571 43.6039 41.3346C43.7211 41.2216 43.8134 41.0854 43.875 40.9347C43.9367 40.784 43.9663 40.6222 43.962 40.4594C43.9628 40.2972 43.9316 40.1363 43.8702 39.9862C43.8088 39.836 43.7183 39.6994 43.6039 39.5842C43.4288 39.4133 43.2074 39.2973 42.9672 39.2507C42.7269 39.2041 42.4783 39.2289 42.252 39.3219C42.0256 39.415 41.8315 39.5723 41.6935 39.7745C41.5555 39.9766 41.4798 40.2147 41.4756 40.4594C41.4751 40.6235 41.5084 40.7858 41.5734 40.9364C41.6385 41.087 41.7338 41.2226 41.8535 41.3346C42.0841 41.571 42.3986 41.7068 42.7287 41.7126ZM42.2912 40.0218C42.3774 39.935 42.4875 39.8757 42.6076 39.8517C42.7276 39.8276 42.852 39.8398 42.9651 39.8867C43.0782 39.9337 43.1748 40.0132 43.2425 40.1152C43.3102 40.2172 43.346 40.337 43.3454 40.4594C43.3494 40.541 43.3355 40.6226 43.3046 40.6982C43.2736 40.7738 43.2265 40.8417 43.1664 40.897C43.1105 40.9573 43.0428 41.0054 42.9675 41.0382C42.8922 41.0711 42.8109 41.0881 42.7287 41.0881C42.6466 41.0881 42.5654 41.0711 42.4901 41.0382C42.4148 41.0054 42.3471 40.9573 42.2912 40.897C42.2285 40.8427 42.1783 40.7755 42.1439 40.7C42.1096 40.6244 42.0919 40.5424 42.0922 40.4594C42.0988 40.2932 42.1702 40.1361 42.2912 40.0218Z" fill="#FBFBFB"/>
<path d="M33.5799 42.2495C33.3877 42.4894 33.2904 42.7915 33.3064 43.0984C33.3224 43.4053 33.4506 43.6957 33.6667 43.9142C33.8828 44.1328 34.1717 44.2643 34.4784 44.2837C34.7852 44.3032 35.0883 44.2093 35.3303 44.0198C35.56 43.7824 35.6884 43.465 35.6884 43.1347C35.6884 42.8044 35.56 42.487 35.3303 42.2495C35.0963 42.0211 34.7822 41.8933 34.4551 41.8933C34.1281 41.8933 33.814 42.0211 33.5799 42.2495ZM34.8927 43.5822C34.8354 43.64 34.7672 43.6858 34.6921 43.7171C34.617 43.7483 34.5365 43.7644 34.4551 43.7644C34.3738 43.7644 34.2931 43.7483 34.218 43.7171C34.1429 43.6858 34.0748 43.64 34.0175 43.5822C33.9587 43.5248 33.9119 43.4563 33.8795 43.3807C33.8472 43.3051 33.8301 43.2239 33.8292 43.1417C33.8282 43.0595 33.8435 42.978 33.8741 42.9017C33.9047 42.8254 33.95 42.7559 34.0075 42.6971C34.065 42.6383 34.1335 42.5914 34.209 42.5591C34.2846 42.5268 34.3659 42.5097 34.4481 42.5088C34.5303 42.5079 34.6118 42.5232 34.6881 42.5538C34.7644 42.5844 34.8339 42.6297 34.8927 42.6871C35.0059 42.8087 35.069 42.9686 35.069 43.1347C35.069 43.3008 35.0059 43.4607 34.8927 43.5822Z" fill="#FBFBFB"/>
<path d="M36.4042 39.4249C36.1758 39.659 36.0479 39.9731 36.0479 40.3002C36.0479 40.6272 36.1758 40.9413 36.4042 41.1753C36.5193 41.2897 36.656 41.3802 36.8061 41.4416C36.9563 41.503 37.1171 41.5342 37.2794 41.5334C37.4421 41.5377 37.604 41.5081 37.7547 41.4464C37.9054 41.3848 38.0415 41.2925 38.1546 41.1753C38.2751 41.0636 38.3712 40.9282 38.437 40.7776C38.5027 40.627 38.5367 40.4645 38.5367 40.3002C38.5367 40.1358 38.5027 39.9733 38.437 39.8227C38.3712 39.6721 38.2751 39.5367 38.1546 39.4249C37.9205 39.1965 37.6064 39.0687 37.2794 39.0687C36.9523 39.0687 36.6382 39.1965 36.4042 39.4249ZM37.7169 40.7377C37.6596 40.7955 37.5915 40.8413 37.5164 40.8726C37.4413 40.9038 37.3607 40.9199 37.2794 40.9199C37.198 40.9199 37.1175 40.9038 37.0424 40.8726C36.9673 40.8413 36.899 40.7955 36.8417 40.7377C36.7257 40.6217 36.6605 40.4643 36.6605 40.3002C36.6605 40.136 36.7257 39.9786 36.8417 39.8625C36.9578 39.7465 37.1153 39.6813 37.2794 39.6813C37.4435 39.6813 37.6009 39.7465 37.7169 39.8625C37.78 39.9167 37.8306 39.9838 37.8653 40.0594C37.9 40.1349 37.918 40.217 37.918 40.3002C37.918 40.3833 37.9 40.4654 37.8653 40.5409C37.8306 40.6165 37.78 40.6836 37.7169 40.7377Z" fill="#FBFBFB"/>
<path d="M39.9245 38.908C40.2534 38.9028 40.5671 38.7685 40.7978 38.534C41.0285 38.2996 41.1578 37.9838 41.1578 37.6549C41.1586 37.4926 41.1274 37.3318 41.066 37.1816C41.0045 37.0314 40.9141 36.8948 40.7997 36.7797C40.6246 36.6087 40.4032 36.4928 40.163 36.4462C39.9227 36.3995 39.6741 36.4243 39.4478 36.5174C39.2214 36.6105 39.0273 36.7678 38.8893 36.9699C38.7513 37.1721 38.6756 37.4102 38.6714 37.6549C38.6814 37.9841 38.8166 38.297 39.0494 38.5299C39.2823 38.7628 39.5953 38.898 39.9245 38.908ZM39.4869 37.2173C39.5731 37.1304 39.6833 37.0712 39.8034 37.0471C39.9234 37.023 40.0478 37.0352 40.1609 37.0822C40.274 37.1291 40.3705 37.2086 40.4382 37.3106C40.5059 37.4126 40.5418 37.5325 40.5411 37.6549C40.5459 37.779 40.513 37.9016 40.4468 38.0068C40.3807 38.1119 40.2843 38.1946 40.1704 38.2441C40.0564 38.2935 39.9303 38.3074 39.8083 38.2839C39.6864 38.2604 39.5743 38.2006 39.4869 38.1124C39.3629 37.992 39.2915 37.8276 39.288 37.6549C39.2946 37.4886 39.3659 37.3315 39.4869 37.2173Z" fill="#FBFBFB"/>
<path d="M0.00339935 44.2277C0.00339935 45.1154 0.179188 45.9942 0.520586 46.8136C0.861983 47.6329 1.36223 48.3766 1.9925 49.0016L7.82056 54.8098C8.44388 55.4395 9.18585 55.9393 10.0036 56.2804C10.8213 56.6216 11.6985 56.7972 12.5845 56.7972C13.4705 56.7972 14.3476 56.6216 15.1653 56.2804C15.983 55.9393 16.725 55.4395 17.3483 54.8098L28.0099 44.1681L38.6517 54.8098C39.2767 55.4401 40.0203 55.9403 40.8396 56.2817C41.659 56.6231 42.5378 56.7989 43.4254 56.7989C44.3131 56.7989 45.192 56.6231 46.0114 56.2817C46.8307 55.9403 47.5743 55.4401 48.1993 54.8098L54.0274 49.0016C55.2906 47.734 56 46.0173 56 44.2277C56 42.4382 55.2906 40.7215 54.0274 39.4539L43.3459 28.7525L54.0075 18.0909C55.2707 16.8233 55.9801 15.1067 55.9801 13.3171C55.9801 11.5275 55.2707 9.81084 54.0075 8.54322L48.1794 2.89417C47.5531 2.26629 46.8091 1.76813 45.9899 1.42823C45.1707 1.08834 44.2925 0.913385 43.4057 0.913385C42.5188 0.913385 41.6406 1.08834 40.8214 1.42823C40.0023 1.76813 39.2581 2.26629 38.6318 2.89417L27.9901 13.5359L17.3284 2.89417C16.7051 2.2645 15.9631 1.76465 15.1454 1.42351C14.3277 1.08238 13.4506 0.906738 12.5646 0.906738C11.6786 0.906738 10.8013 1.08238 9.98364 1.42351C9.16594 1.76465 8.42397 2.2645 7.80065 2.89417L1.97259 8.70235C0.709351 9.96997 0 11.6866 0 13.4762C0 15.2658 0.709351 16.9824 1.97259 18.2501L12.6143 28.9117L1.97259 39.5534C0.72746 40.7922 0.0200717 42.4714 0.00339935 44.2277ZM15.1405 4.88328L25.7821 15.5449L14.7824 26.5446L4.12086 15.9029C3.43458 15.2133 3.04921 14.28 3.04921 13.3071C3.04921 12.3342 3.43458 11.4009 4.12086 10.7114L9.96883 4.88328C10.6576 4.20303 11.5866 3.82159 12.5546 3.82159C13.5227 3.82159 14.4517 4.20303 15.1405 4.88328ZM40.7999 4.88328C41.1387 4.5424 41.5415 4.27199 41.9853 4.08763C42.4292 3.90328 42.9052 3.80863 43.3857 3.80916C44.362 3.80938 45.2986 4.19547 45.9915 4.88328L51.8195 10.8506C52.5058 11.5402 52.8911 12.4735 52.8911 13.4464C52.8911 14.4193 52.5058 15.3526 51.8195 16.0422L15.1405 52.6218C14.4509 53.3081 13.5176 53.6933 12.5447 53.6933C11.5718 53.6933 10.6385 53.3081 9.94892 52.6218L4.12086 46.7937C3.43968 46.1046 3.05423 45.1768 3.04667 44.2079C3.05325 43.2329 3.43846 42.2986 4.12086 41.6021L40.7999 4.88328ZM43.3857 53.6362C42.9048 53.639 42.4283 53.5453 41.9841 53.3608C41.54 53.1764 41.1374 52.9048 40.7999 52.5621L30.1383 41.9204L41.158 30.9008L51.7996 41.5425C52.1411 41.8849 52.4117 42.2913 52.596 42.7384C52.7803 43.1855 52.8747 43.6646 52.8737 44.1482C52.8753 44.6289 52.7812 45.1052 52.5968 45.5492C52.4123 45.9931 52.1414 46.3959 51.7996 46.734L46.0114 52.6218C45.6706 52.9668 45.2649 53.2411 44.8177 53.4289C44.3705 53.6166 43.8907 53.7141 43.4057 53.7158L43.3857 53.6362Z" fill="#FBFBFB"/>
<path d="M21.9593 37.815C22.3015 38.1608 22.7088 38.4354 23.1578 38.6227C23.6068 38.8101 24.0884 38.9065 24.5749 38.9065C25.0614 38.9065 25.5431 38.8101 25.9921 38.6227C26.4411 38.4354 26.8484 38.1608 27.1906 37.815L34.9084 30.0973C35.2542 29.7551 35.5287 29.3478 35.7161 28.8988C35.9034 28.4498 35.9998 27.9681 35.9998 27.4816C35.9998 26.9951 35.9034 26.5135 35.7161 26.0645C35.5287 25.6155 35.2542 25.2082 34.9084 24.866L32.044 21.9818C31.3477 21.293 30.4078 20.9067 29.4284 20.9067C28.4489 20.9067 27.509 21.293 26.8127 21.9818L19.075 29.7194C18.3863 30.4157 18 31.3556 18 32.3351C18 33.3145 18.3863 34.2544 19.075 34.9507L21.9593 37.815ZM28.5631 23.7322C28.7962 23.5097 29.1061 23.3855 29.4284 23.3855C29.7506 23.3855 30.0605 23.5097 30.2936 23.7322L33.1778 26.6164C33.4039 26.8441 33.5323 27.1509 33.5359 27.4717C33.5313 27.7982 33.4034 28.1108 33.1778 28.3469L25.4402 36.0845C25.2095 36.3117 24.8987 36.439 24.5749 36.439C24.2512 36.439 23.9404 36.3117 23.7097 36.0845L20.8255 33.2003C20.5983 32.9696 20.471 32.6588 20.471 32.3351C20.471 32.0113 20.5983 31.7005 20.8255 31.4698L28.5631 23.7322Z" fill="#FBFBFB"/>
<path d="M35.2701 18.818C35.6002 18.8122 35.9147 18.6764 36.1453 18.4401C36.2632 18.3268 36.357 18.1909 36.4211 18.0406C36.4852 17.8902 36.5182 17.7284 36.5182 17.5649C36.5182 17.4014 36.4852 17.2396 36.4211 17.0892C36.357 16.9388 36.2632 16.8029 36.1453 16.6897C35.9999 16.552 35.8232 16.4517 35.6304 16.3976C35.4376 16.3436 35.2344 16.3372 35.0387 16.3792C34.8429 16.4212 34.6603 16.5102 34.5067 16.6386C34.353 16.767 34.2328 16.9308 34.1566 17.116C34.0805 17.3012 34.0506 17.5022 34.0695 17.7015C34.0884 17.9009 34.1556 18.0926 34.2652 18.2602C34.3748 18.4278 34.5236 18.5661 34.6987 18.6633C34.8738 18.7605 35.0699 18.8136 35.2701 18.818ZM34.8325 17.1273C34.8898 17.0695 34.958 17.0237 35.0331 16.9924C35.1082 16.9612 35.1887 16.9451 35.2701 16.9451C35.3514 16.9451 35.4319 16.9612 35.507 16.9924C35.5821 17.0237 35.6504 17.0695 35.7077 17.1273C35.7652 17.1847 35.8108 17.253 35.8419 17.328C35.873 17.4031 35.889 17.4836 35.889 17.5649C35.889 17.6461 35.873 17.7266 35.8419 17.8017C35.8108 17.8768 35.7652 17.945 35.7077 18.0025C35.6503 18.0599 35.582 18.1055 35.5069 18.1366C35.4318 18.1677 35.3513 18.1837 35.2701 18.1837C35.1888 18.1837 35.1083 18.1677 35.0332 18.1366C34.9581 18.1055 34.89 18.0599 34.8325 18.0025C34.7386 17.8912 34.6869 17.7503 34.6869 17.6046C34.6869 17.459 34.7386 17.3181 34.8325 17.2068V17.1273Z" fill="#FBFBFB"/>
<path d="M38.1145 21.722C38.2772 21.7246 38.4388 21.6946 38.5897 21.6336C38.7405 21.5725 38.8774 21.4818 38.9925 21.3667C39.1075 21.2517 39.1983 21.1147 39.2593 20.9638C39.3204 20.813 39.3504 20.6514 39.3477 20.4887C39.352 20.326 39.3224 20.1641 39.2608 20.0135C39.1991 19.8628 39.1068 19.7266 38.9897 19.6135C38.8765 19.4956 38.7405 19.4018 38.5901 19.3377C38.4397 19.2736 38.278 19.2405 38.1145 19.2405C37.951 19.2405 37.7892 19.2736 37.6388 19.3377C37.4884 19.4018 37.3525 19.4956 37.2393 19.6135C37.1195 19.7256 37.0242 19.8612 36.9592 20.0117C36.8942 20.1623 36.8608 20.3247 36.8613 20.4887C36.8671 20.8188 37.0029 21.1334 37.2393 21.3639C37.3544 21.4782 37.4911 21.5687 37.6412 21.6302C37.7914 21.6916 37.9522 21.7228 38.1145 21.722ZM37.6769 20.0511C37.7311 19.9881 37.7982 19.9375 37.8737 19.9028C37.9493 19.8681 38.0314 19.8501 38.1145 19.8501C38.1976 19.8501 38.2797 19.8681 38.3552 19.9028C38.4308 19.9375 38.498 19.9881 38.5521 20.0511C38.6123 20.1065 38.6594 20.1744 38.6903 20.25C38.7212 20.3256 38.7352 20.4071 38.7311 20.4887C38.7315 20.5698 38.7159 20.6503 38.6852 20.7254C38.6545 20.8004 38.6093 20.8687 38.5521 20.9263C38.4948 20.984 38.4266 21.0299 38.3515 21.0611C38.2764 21.0924 38.1958 21.1085 38.1145 21.1085C38.0331 21.1085 37.9526 21.0924 37.8775 21.0611C37.8024 21.0299 37.7343 20.984 37.6769 20.9263C37.556 20.812 37.4845 20.655 37.478 20.4887C37.4777 20.4058 37.4953 20.3237 37.5297 20.2482C37.564 20.1727 37.6143 20.1055 37.6769 20.0511Z" fill="#FBFBFB"/>
<path d="M40.7401 24.3676C41.0693 24.3576 41.3823 24.2224 41.6152 23.9895C41.8481 23.7566 41.9832 23.4436 41.9932 23.1144C41.989 22.8697 41.9133 22.6316 41.7753 22.4295C41.6373 22.2273 41.4432 22.07 41.2168 21.9769C40.9905 21.8839 40.7419 21.8591 40.5016 21.9057C40.2614 21.9523 40.04 22.0683 39.8649 22.2392C39.7506 22.3544 39.6601 22.491 39.5986 22.6412C39.5372 22.7913 39.506 22.9522 39.5069 23.1144C39.5068 23.4434 39.6361 23.7591 39.8668 23.9936C40.0975 24.228 40.4112 24.3624 40.7401 24.3676ZM40.3025 22.6768C40.3599 22.6191 40.428 22.5733 40.5031 22.542C40.5782 22.5107 40.6587 22.4946 40.7401 22.4946C40.8214 22.4946 40.902 22.5107 40.9771 22.542C41.0522 22.5733 41.1204 22.6191 41.1778 22.6768C41.2987 22.7911 41.3701 22.9482 41.3766 23.1144C41.3731 23.2872 41.3017 23.4516 41.1778 23.5719C41.0903 23.6602 40.9782 23.72 40.8563 23.7434C40.7343 23.7669 40.6081 23.7531 40.4941 23.7036C40.3802 23.6542 40.2838 23.5715 40.2177 23.4663C40.1515 23.3612 40.1187 23.2386 40.1235 23.1144C40.1231 23.0333 40.1386 22.9529 40.1694 22.8778C40.2001 22.8027 40.2454 22.7344 40.3025 22.6768Z" fill="#FBFBFB"/>
<path d="M38.1745 15.9934C38.5034 15.9882 38.817 15.8538 39.0478 15.6194C39.2785 15.3849 39.4078 15.0692 39.4077 14.7402C39.4086 14.578 39.3774 14.4171 39.316 14.2669C39.2545 14.1168 39.164 13.9802 39.0497 13.865C38.8156 13.6366 38.5016 13.5088 38.1745 13.5088C37.8475 13.5088 37.5334 13.6366 37.2993 13.865C37.1865 13.9985 37.1033 14.1544 37.0553 14.3224C37.0073 14.4905 36.9955 14.6668 37.0208 14.8397C37.0207 15.1686 37.15 15.4844 37.3808 15.7188C37.6115 15.9533 37.9251 16.0876 38.254 16.0928L38.1745 15.9934ZM37.7368 14.3026C37.8231 14.2158 37.9333 14.1565 38.0533 14.1325C38.1734 14.1084 38.2978 14.1206 38.4109 14.1675C38.5239 14.2145 38.6205 14.294 38.6882 14.396C38.7559 14.498 38.7918 14.6178 38.7911 14.7402C38.7911 14.9038 38.7261 15.0606 38.6105 15.1763C38.4948 15.2919 38.338 15.3569 38.1745 15.3569C38.011 15.3569 37.8541 15.2919 37.7384 15.1763C37.6228 15.0606 37.5579 14.9038 37.5579 14.7402C37.5575 14.6591 37.5731 14.5787 37.6038 14.5036C37.6345 14.4285 37.6797 14.3602 37.7368 14.3026Z" fill="#FBFBFB"/>
<path d="M40.1229 16.7097C39.8945 16.9438 39.7666 17.2578 39.7666 17.5849C39.7666 17.9119 39.8945 18.226 40.1229 18.4601C40.3601 18.684 40.6721 18.8116 40.9981 18.8181C41.2005 18.8171 41.3994 18.7663 41.5775 18.6702C41.7555 18.574 41.9072 18.4356 42.0192 18.267C42.1311 18.0984 42.1999 17.9049 42.2194 17.7035C42.2388 17.5021 42.2083 17.299 42.1307 17.1121C42.0532 16.9252 41.9309 16.7603 41.7745 16.6319C41.6182 16.5034 41.4326 16.4155 41.2341 16.3757C41.0357 16.3359 40.8306 16.3456 40.6368 16.4039C40.4431 16.4621 40.2665 16.5671 40.1229 16.7097ZM41.4556 18.0225C41.3341 18.1357 41.1742 18.1987 41.0081 18.1987C40.842 18.1987 40.6821 18.1357 40.5606 18.0225C40.5029 17.9652 40.457 17.897 40.4257 17.8219C40.3944 17.7468 40.3784 17.6662 40.3784 17.5849C40.3784 17.5035 40.3944 17.423 40.4257 17.3479C40.457 17.2728 40.5029 17.2046 40.5606 17.1473C40.681 17.0234 40.8453 16.9519 41.018 16.9484C41.1843 16.9549 41.3413 17.0263 41.4556 17.1473C41.5133 17.2046 41.5592 17.2728 41.5905 17.3479C41.6217 17.423 41.6378 17.5035 41.6378 17.5849C41.6378 17.6662 41.6217 17.7468 41.5905 17.8219C41.5592 17.897 41.5133 17.9652 41.4556 18.0225Z" fill="#FBFBFB"/>
<path d="M43.644 21.4635C43.8063 21.4643 43.9671 21.4331 44.1172 21.3717C44.2674 21.3102 44.4041 21.2198 44.5192 21.1055C44.6377 20.9905 44.7319 20.8529 44.7963 20.7009C44.8606 20.5488 44.8938 20.3854 44.8938 20.2203C44.8938 20.0552 44.8606 19.8918 44.7963 19.7397C44.7319 19.5877 44.6377 19.4501 44.5192 19.3352C44.2852 19.1067 43.9711 18.9789 43.644 18.9789C43.317 18.9789 43.0029 19.1067 42.7688 19.3352C42.6545 19.4503 42.564 19.5869 42.5026 19.7371C42.4411 19.8873 42.4099 20.0481 42.4108 20.2104C42.4084 20.3758 42.4388 20.5401 42.5002 20.6937C42.5617 20.8473 42.653 20.9873 42.7688 21.1055C42.884 21.2198 43.0205 21.3102 43.1706 21.3717C43.3208 21.4331 43.4817 21.4643 43.644 21.4635ZM43.2063 19.7728C43.2637 19.715 43.3319 19.6692 43.407 19.6379C43.4821 19.6067 43.5627 19.5906 43.644 19.5906C43.7254 19.5906 43.8059 19.6067 43.881 19.6379C43.9561 19.6692 44.0242 19.715 44.0816 19.7728C44.2025 19.887 44.274 20.0441 44.2805 20.2104C44.277 20.3831 44.2055 20.5475 44.0816 20.6679C43.9941 20.7561 43.8822 20.8159 43.7602 20.8394C43.6382 20.8629 43.512 20.849 43.398 20.7995C43.2841 20.7501 43.1877 20.6674 43.1216 20.5623C43.0555 20.4571 43.0227 20.3345 43.0274 20.2104C43.027 20.1292 43.0426 20.0488 43.0733 19.9737C43.104 19.8986 43.1492 19.8303 43.2063 19.7728Z" fill="#FBFBFB"/>
<path d="M40.9984 13.189C41.3273 13.1837 41.6409 13.0494 41.8717 12.815C42.1024 12.5805 42.2317 12.2648 42.2316 11.9358C42.2325 11.7736 42.2013 11.6127 42.1398 11.4625C42.0784 11.3124 41.9879 11.1758 41.8736 11.0606C41.6395 10.8322 41.3254 10.7043 40.9984 10.7043C40.6713 10.7043 40.3572 10.8322 40.1232 11.0606C40.0089 11.1758 39.9184 11.3124 39.8569 11.4625C39.7955 11.6127 39.7643 11.7736 39.7652 11.9358C39.7651 12.2648 39.8944 12.5805 40.1251 12.815C40.3558 13.0494 40.6695 13.1837 40.9984 13.189ZM40.5608 11.4982C40.6471 11.4113 40.7572 11.3521 40.8772 11.328C40.9973 11.304 41.1217 11.3162 41.2348 11.3631C41.3478 11.4101 41.4443 11.4896 41.5121 11.5916C41.5798 11.6936 41.6156 11.8134 41.615 11.9358C41.6197 12.0599 41.5869 12.1826 41.5208 12.2877C41.4546 12.3928 41.3583 12.4756 41.2444 12.525C41.1304 12.5744 41.0042 12.5883 40.8822 12.5648C40.7602 12.5413 40.6483 12.4815 40.5608 12.3933C40.4369 12.2729 40.3654 12.1086 40.3619 11.9358C40.3631 11.7724 40.4273 11.6157 40.5409 11.4982H40.5608Z" fill="#FBFBFB"/>
<path d="M43.8027 16.0134C44.1357 16.0119 44.4557 15.8839 44.6978 15.6554C44.9262 15.4213 45.0541 15.1072 45.0541 14.7802C45.0541 14.4531 44.9262 14.139 44.6978 13.905C44.4604 13.6753 44.143 13.5469 43.8127 13.5469C43.4823 13.5469 43.1649 13.6753 42.9275 13.905C42.6991 14.139 42.5713 14.4531 42.5713 14.7802C42.5713 15.1072 42.6991 15.4213 42.9275 15.6554C43.0426 15.7697 43.1793 15.8602 43.3295 15.9216C43.4796 15.983 43.6404 16.0142 43.8027 16.0134ZM43.3652 14.3426C43.4227 14.2854 43.491 14.2402 43.5661 14.2094C43.6412 14.1787 43.7216 14.1631 43.8027 14.1636C43.9268 14.1588 44.0495 14.1917 44.1547 14.2578C44.2598 14.324 44.3424 14.4203 44.3919 14.5342C44.4413 14.6482 44.4553 14.7744 44.4318 14.8964C44.4083 15.0183 44.3485 15.1304 44.2603 15.2178C44.1388 15.331 43.9788 15.394 43.8127 15.394C43.6466 15.394 43.4867 15.331 43.3652 15.2178C43.3074 15.1605 43.2615 15.0923 43.2303 15.0172C43.199 14.9421 43.1829 14.8615 43.1829 14.7802C43.1829 14.6988 43.199 14.6183 43.2303 14.5432C43.2615 14.4681 43.3074 14.3999 43.3652 14.3426Z" fill="#FBFBFB"/>
<path d="M46.4491 18.659C46.6113 18.6599 46.7722 18.6287 46.9224 18.5672C47.0726 18.5058 47.2091 18.4153 47.3243 18.301C47.554 18.0636 47.6824 17.7462 47.6824 17.4159C47.6824 17.0855 47.554 16.7681 47.3243 16.5307C47.0902 16.3023 46.7761 16.1744 46.4491 16.1744C46.122 16.1744 45.8079 16.3023 45.5738 16.5307C45.3442 16.7681 45.2158 17.0855 45.2158 17.4159C45.2158 17.7462 45.3442 18.0636 45.5738 18.301C45.689 18.4153 45.8256 18.5058 45.9758 18.5672C46.126 18.6287 46.2868 18.6599 46.4491 18.659ZM46.0115 16.9683C46.0688 16.9106 46.137 16.8648 46.2121 16.8335C46.2872 16.8022 46.3677 16.7861 46.4491 16.7861C46.5304 16.7861 46.6109 16.8022 46.686 16.8335C46.7611 16.8648 46.8294 16.9106 46.8867 16.9683C47 17.0898 47.0629 17.2497 47.0629 17.4159C47.0629 17.582 47 17.7419 46.8867 17.8634C46.8294 17.9211 46.7611 17.967 46.686 17.9982C46.6109 18.0295 46.5304 18.0456 46.4491 18.0456C46.3677 18.0456 46.2872 18.0295 46.2121 17.9982C46.137 17.967 46.0688 17.9211 46.0115 17.8634C45.8983 17.7419 45.8352 17.582 45.8352 17.4159C45.8352 17.2497 45.8983 17.0898 46.0115 16.9683Z" fill="#FBFBFB"/>
<path d="M9.17322 42.0906C8.9448 42.3247 8.81689 42.6388 8.81689 42.9659C8.81689 43.2929 8.9448 43.607 9.17322 43.8411C9.40534 44.0732 9.72016 44.2036 10.0484 44.2036C10.3767 44.2036 10.6915 44.0732 10.9236 43.8411C11.1558 43.6089 11.2862 43.2941 11.2862 42.9659C11.2862 42.6376 11.1558 42.3228 10.9236 42.0906C10.685 41.8712 10.3726 41.7494 10.0484 41.7494C9.72423 41.7494 9.41185 41.8712 9.17322 42.0906ZM10.486 43.4035C10.3699 43.5195 10.2126 43.5847 10.0484 43.5847C9.8843 43.5847 9.72682 43.5195 9.61076 43.4035C9.4947 43.2874 9.42951 43.13 9.42951 42.9659C9.42951 42.8017 9.4947 42.6443 9.61076 42.5283C9.66808 42.4705 9.73634 42.4247 9.81145 42.3934C9.88655 42.3622 9.96708 42.3461 10.0484 42.3461C10.1298 42.3461 10.2103 42.3622 10.2854 42.3934C10.3605 42.4247 10.4287 42.4705 10.486 42.5283C10.5404 42.5907 10.5813 42.6638 10.6059 42.7429C10.6306 42.8221 10.6385 42.9054 10.6291 42.9878C10.6198 43.0701 10.5934 43.1496 10.5517 43.2212C10.5099 43.2927 10.4536 43.3548 10.3865 43.4035H10.486Z" fill="#FBFBFB"/>
<path d="M11.9184 44.9349C11.8004 45.0481 11.7066 45.184 11.6425 45.3344C11.5784 45.4848 11.5454 45.6466 11.5454 45.8101C11.5454 45.9736 11.5784 46.1354 11.6425 46.2858C11.7066 46.4362 11.8004 46.5721 11.9184 46.6853C12.1524 46.9137 12.4665 47.0415 12.7936 47.0415C13.1206 47.0415 13.4347 46.9137 13.6688 46.6853C13.8972 46.4512 14.025 46.1371 14.025 45.8101C14.025 45.483 13.8972 45.1689 13.6688 44.9349C13.5556 44.8169 13.4196 44.7231 13.2692 44.659C13.1188 44.5949 12.9571 44.5619 12.7936 44.5619C12.6301 44.5619 12.4683 44.5949 12.3179 44.659C12.1675 44.7231 12.0316 44.8169 11.9184 44.9349ZM13.2311 46.2477C13.1096 46.3609 12.9497 46.4239 12.7836 46.4239C12.6175 46.4239 12.4576 46.3609 12.3361 46.2477C12.2784 46.1904 12.2325 46.1222 12.2012 46.0471C12.17 45.972 12.1539 45.8914 12.1539 45.8101C12.1539 45.7287 12.17 45.6482 12.2012 45.5731C12.2325 45.498 12.2784 45.4298 12.3361 45.3725C12.3951 45.3102 12.466 45.2605 12.5446 45.2263C12.6232 45.1921 12.7079 45.1742 12.7936 45.1736C12.8767 45.1719 12.9592 45.189 13.0349 45.2234C13.1107 45.2578 13.1777 45.3087 13.2311 45.3725C13.284 45.4349 13.3239 45.5072 13.3485 45.5852C13.3732 45.6632 13.382 45.7453 13.3746 45.8267C13.3672 45.9082 13.3437 45.9874 13.3054 46.0596C13.2671 46.1319 13.2148 46.1958 13.1516 46.2477H13.2311Z" fill="#FBFBFB"/>
<path d="M14.5438 47.5606C14.3154 47.7947 14.1875 48.1088 14.1875 48.4358C14.1875 48.7629 14.3154 49.077 14.5438 49.311C14.6555 49.4315 14.7909 49.5277 14.9415 49.5934C15.0921 49.6592 15.2547 49.6931 15.419 49.6931C15.5834 49.6931 15.7459 49.6592 15.8965 49.5934C16.0471 49.5277 16.1825 49.4315 16.2942 49.311C16.4122 49.1978 16.506 49.0619 16.5701 48.9115C16.6342 48.7611 16.6672 48.5993 16.6672 48.4358C16.6672 48.2723 16.6342 48.1105 16.5701 47.9601C16.506 47.8097 16.4122 47.6738 16.2942 47.5606C16.0602 47.3322 15.7461 47.2043 15.419 47.2043C15.092 47.2043 14.7779 47.3322 14.5438 47.5606ZM15.8566 48.8933C15.7993 48.9511 15.7311 48.9969 15.656 49.0281C15.5809 49.0594 15.5004 49.0755 15.419 49.0755C15.3377 49.0755 15.2572 49.0594 15.1821 49.0281C15.1069 48.9969 15.0387 48.9511 14.9814 48.8933C14.8681 48.7718 14.8052 48.6119 14.8052 48.4458C14.8052 48.2797 14.8681 48.1197 14.9814 47.9982C15.0401 47.9407 15.1096 47.8954 15.1859 47.8648C15.2622 47.8342 15.3439 47.8189 15.4261 47.8199C15.5083 47.8208 15.5894 47.8379 15.665 47.8702C15.7406 47.9025 15.8091 47.9494 15.8665 48.0082C15.924 48.0669 15.9694 48.1364 16 48.2127C16.0306 48.289 16.0458 48.3706 16.0449 48.4528C16.044 48.535 16.0269 48.6162 15.9946 48.6918C15.9623 48.7674 15.9154 48.8359 15.8566 48.8933Z" fill="#FBFBFB"/>
<path d="M11.9773 39.1863C11.7451 39.4185 11.6147 39.7333 11.6147 40.0616C11.6147 40.3898 11.7451 40.7047 11.9773 40.9368C12.2094 41.1689 12.5242 41.2993 12.8525 41.2993C13.1807 41.2993 13.4956 41.1689 13.7277 40.9368C13.9561 40.7027 14.084 40.3886 14.084 40.0616C14.084 39.7345 13.9561 39.4204 13.7277 39.1863C13.4891 38.9669 13.1767 38.8451 12.8525 38.8451C12.5283 38.8451 12.2159 38.9669 11.9773 39.1863ZM13.2901 40.5191C13.1698 40.6267 13.0139 40.6862 12.8525 40.6862C12.691 40.6862 12.5353 40.6267 12.4149 40.5191C12.3562 40.4616 12.3093 40.3931 12.277 40.3175C12.2447 40.2419 12.2276 40.1607 12.2266 40.0785C12.2257 39.9963 12.2409 39.9148 12.2715 39.8385C12.3021 39.7622 12.3475 39.6927 12.405 39.6339C12.4624 39.5751 12.5309 39.5283 12.6065 39.4959C12.6821 39.4636 12.7632 39.4465 12.8454 39.4456C12.9276 39.4447 13.0093 39.46 13.0856 39.4906C13.1619 39.5212 13.2314 39.5665 13.2901 39.624C13.4034 39.7455 13.4663 39.9054 13.4663 40.0715C13.4663 40.2376 13.4034 40.3975 13.2901 40.5191Z" fill="#FBFBFB"/>
<path d="M14.8021 42.031C14.5737 42.265 14.4458 42.5791 14.4458 42.9062C14.4458 43.2332 14.5737 43.5473 14.8021 43.7814C15.0395 44.0111 15.357 44.1395 15.6873 44.1395C16.0176 44.1395 16.3349 44.0111 16.5723 43.7814C16.7103 43.6708 16.8234 43.5324 16.904 43.3751C16.9846 43.2178 17.031 43.0452 17.0402 42.8687C17.0494 42.6922 17.0213 42.5157 16.9574 42.3509C16.8936 42.1861 16.7956 42.0366 16.6699 41.9123C16.5443 41.7881 16.3937 41.6918 16.2282 41.6298C16.0626 41.5679 15.8858 41.5416 15.7094 41.5528C15.533 41.564 15.361 41.6124 15.2046 41.6948C15.0482 41.7772 14.9111 41.8918 14.8021 42.031ZM16.1348 43.3438C16.0133 43.457 15.8534 43.52 15.6873 43.52C15.5212 43.52 15.3612 43.457 15.2397 43.3438C15.1819 43.2865 15.1362 43.2183 15.1049 43.1432C15.0736 43.0681 15.0574 42.9875 15.0574 42.9062C15.0574 42.8248 15.0736 42.7443 15.1049 42.6691C15.1362 42.594 15.1819 42.5259 15.2397 42.4686C15.2972 42.4114 15.3655 42.3662 15.4406 42.3354C15.5157 42.3047 15.5962 42.2891 15.6773 42.2895C15.8015 42.2848 15.924 42.3177 16.0292 42.3838C16.1343 42.4499 16.2171 42.5463 16.2665 42.6602C16.316 42.7742 16.3298 42.9004 16.3063 43.0224C16.2828 43.1443 16.223 43.2564 16.1348 43.3438Z" fill="#FBFBFB"/>
<path d="M17.4474 44.6763C17.2177 44.9138 17.0894 45.2312 17.0894 45.5615C17.0894 45.8918 17.2177 46.2092 17.4474 46.4466C17.6814 46.6751 17.9955 46.8029 18.3226 46.8029C18.6496 46.8029 18.9637 46.6751 19.1978 46.4466C19.3163 46.3317 19.4105 46.1941 19.4748 46.0421C19.5392 45.89 19.5723 45.7266 19.5723 45.5615C19.5723 45.3964 19.5392 45.233 19.4748 45.0809C19.4105 44.9289 19.3163 44.7913 19.1978 44.6763C18.9592 44.4569 18.6468 44.3351 18.3226 44.3351C17.9984 44.3351 17.686 44.4569 17.4474 44.6763ZM18.7603 46.009C18.7029 46.0668 18.6348 46.1126 18.5597 46.1439C18.4846 46.1751 18.4039 46.1912 18.3226 46.1912C18.2412 46.1912 18.1607 46.1751 18.0856 46.1439C18.0105 46.1126 17.9424 46.0668 17.885 46.009C17.7718 45.8875 17.7088 45.7276 17.7088 45.5615C17.7088 45.3954 17.7718 45.2355 17.885 45.1139C18.0037 44.9979 18.1636 44.9337 18.3296 44.9356C18.4956 44.9375 18.6542 45.0052 18.7702 45.1239C18.8863 45.2426 18.9504 45.4025 18.9486 45.5685C18.9467 45.7345 18.879 45.893 18.7603 46.009Z" fill="#FBFBFB"/>
<path d="M15.6571 38.5101C15.8194 38.511 15.9801 38.4798 16.1303 38.4183C16.2805 38.3569 16.4172 38.2664 16.5323 38.1521C16.762 37.9147 16.8903 37.5973 16.8903 37.2669C16.8903 36.9366 16.762 36.6192 16.5323 36.3818C16.4218 36.2439 16.2833 36.1309 16.126 36.0502C15.9687 35.9696 15.7961 35.9231 15.6196 35.9139C15.4431 35.9047 15.2666 35.933 15.1018 35.9968C14.937 36.0606 14.7875 36.1586 14.6633 36.2843C14.539 36.41 14.4427 36.5605 14.3808 36.7261C14.3188 36.8916 14.2926 37.0684 14.3038 37.2448C14.315 37.4212 14.3633 37.5932 14.4457 37.7496C14.5281 37.906 14.6427 38.0431 14.7819 38.1521C14.897 38.2664 15.0336 38.3569 15.1837 38.4183C15.3339 38.4798 15.4948 38.511 15.6571 38.5101ZM15.2194 36.8194C15.2767 36.7617 15.345 36.7158 15.4201 36.6846C15.4952 36.6533 15.5757 36.6372 15.6571 36.6372C15.7384 36.6372 15.819 36.6533 15.8941 36.6846C15.9692 36.7158 16.0373 36.7617 16.0946 36.8194C16.2079 36.9409 16.2709 37.1008 16.2709 37.2669C16.2709 37.4331 16.2079 37.593 16.0946 37.7145C16.0373 37.7722 15.9692 37.818 15.8941 37.8493C15.819 37.8806 15.7384 37.8967 15.6571 37.8967C15.5757 37.8967 15.4952 37.8806 15.4201 37.8493C15.345 37.818 15.2767 37.7722 15.2194 37.7145C15.1532 37.6625 15.0985 37.5975 15.0583 37.5235C15.0182 37.4495 14.9935 37.368 14.9861 37.2842C14.9786 37.2003 14.9885 37.1158 15.015 37.0359C15.0414 36.9559 15.0839 36.8823 15.1399 36.8194H15.2194Z" fill="#FBFBFB"/>
<path d="M17.6067 39.2262C17.3783 39.4603 17.2505 39.7744 17.2505 40.1014C17.2505 40.4285 17.3783 40.7426 17.6067 40.9766C17.8408 41.205 18.1549 41.3329 18.4819 41.3329C18.809 41.3329 19.123 41.205 19.3571 40.9766C19.475 40.8634 19.5689 40.7275 19.6329 40.5771C19.697 40.4267 19.7301 40.2649 19.7301 40.1014C19.7301 39.9379 19.697 39.7761 19.6329 39.6257C19.5689 39.4753 19.475 39.3394 19.3571 39.2262C19.123 38.9978 18.809 38.8699 18.4819 38.8699C18.1549 38.8699 17.8408 38.9978 17.6067 39.2262ZM18.9394 40.539C18.8178 40.6523 18.658 40.7152 18.4919 40.7152C18.3257 40.7152 18.1659 40.6523 18.0444 40.539C17.9866 40.4817 17.9407 40.4135 17.9095 40.3384C17.8782 40.2633 17.8621 40.1828 17.8621 40.1014C17.8621 40.0201 17.8782 39.9395 17.9095 39.8644C17.9407 39.7893 17.9866 39.7211 18.0444 39.6638C18.1019 39.6067 18.1702 39.5614 18.2453 39.5307C18.3204 39.5 18.4008 39.4844 18.4819 39.4848C18.6511 39.4869 18.8137 39.5505 18.9394 39.6638C18.9971 39.7211 19.043 39.7893 19.0742 39.8644C19.1055 39.9395 19.1216 40.0201 19.1216 40.1014C19.1216 40.1828 19.1055 40.2633 19.0742 40.3384C19.043 40.4135 18.9971 40.4817 18.9394 40.539Z" fill="#FBFBFB"/>
<path d="M20.2523 41.8718C20.0239 42.1059 19.896 42.42 19.896 42.747C19.896 43.0741 20.0239 43.3881 20.2523 43.6222C20.4864 43.8506 20.8005 43.9785 21.1275 43.9785C21.4546 43.9785 21.7687 43.8506 22.0027 43.6222C22.2349 43.3901 22.3653 43.0753 22.3653 42.747C22.3653 42.4187 22.2349 42.1039 22.0027 41.8718C21.7706 41.6397 21.4558 41.5093 21.1275 41.5093C20.7993 41.5093 20.4844 41.6397 20.2523 41.8718ZM21.5651 43.1846C21.5078 43.2423 21.4396 43.2882 21.3645 43.3194C21.2894 43.3507 21.2089 43.3668 21.1275 43.3668C21.0462 43.3668 20.9657 43.3507 20.8905 43.3194C20.8154 43.2882 20.7472 43.2423 20.6899 43.1846C20.5766 43.0631 20.5137 42.9032 20.5137 42.7371C20.5137 42.571 20.5766 42.411 20.6899 42.2895C20.7472 42.2318 20.8154 42.186 20.8905 42.1547C20.9657 42.1234 21.0462 42.1073 21.1275 42.1073C21.2089 42.1073 21.2894 42.1234 21.3645 42.1547C21.4396 42.186 21.5078 42.2318 21.5651 42.2895C21.6783 42.411 21.7414 42.571 21.7414 42.7371C21.7414 42.9032 21.6783 43.0631 21.5651 43.1846Z" fill="#FBFBFB"/>
</svg>
