<svg width="16" height="16" viewBox="0 0 16 16" fill="none" xmlns="http://www.w3.org/2000/svg">
<path fill-rule="evenodd" clip-rule="evenodd" d="M6.44055 0C2.89142 0 0 2.89143 0 6.44055C0 9.98968 2.89142 12.8811 6.44055 12.8811C7.97578 12.8811 9.38709 12.3388 10.4954 11.4375L14.853 15.7951C15.0201 15.9692 15.2683 16.0393 15.5017 15.9784C15.7352 15.9176 15.9176 15.7352 15.9784 15.5017C16.0393 15.2683 15.9692 15.0201 15.7951 14.853L11.4375 10.4954C12.3388 9.38709 12.8811 7.97578 12.8811 6.44055C12.8811 2.89143 9.98968 0 6.44055 0ZM6.44045 1.33252C9.26942 1.33252 11.5485 3.61157 11.5485 6.44054C11.5485 7.81865 11.0049 9.06372 10.1231 9.98094C10.0688 10.0209 10.0208 10.0689 9.98084 10.1232C9.06362 11.005 7.81855 11.5486 6.44045 11.5486C3.61147 11.5486 1.33242 9.26952 1.33242 6.44054C1.33242 3.61157 3.61147 1.33252 6.44045 1.33252Z" fill="#00B8A8"/>
</svg>
