<svg width="19" height="19" viewBox="0 0 19 19" fill="none" xmlns="http://www.w3.org/2000/svg">
<path d="M18.9 5.59999C18.9 4.59999 18.7 3.9 18.5 3.3C18.3 2.7 17.9 2.09999 17.4 1.59999C16.9 1.09999 16.3 0.7 15.7 0.5C15.1 0.3 14.4 0.0999908 13.4 0.0999908C12.4 0.0999908 12.1 0 9.5 0C6.9 0 6.59998 -9.15676e-06 5.59998 0.0999908C4.59998 0.0999908 3.89999 0.3 3.29999 0.5C2.69999 0.7 2.09998 1.09999 1.59998 1.59999C1.09998 2.09999 0.7 2.7 0.5 3.3C0.3 3.9 0.0999756 4.59999 0.0999756 5.59999C0.0999756 6.59999 0 6.9 0 9.5C0 12.1 -2.44156e-05 12.4 0.0999756 13.4C0.0999756 14.4 0.3 15.1 0.5 15.7C0.7 16.3 1.09998 16.9 1.59998 17.4C2.09998 17.9 2.69999 18.3 3.29999 18.5C3.89999 18.7 4.59998 18.9 5.59998 18.9C6.59998 18.9 6.9 19 9.5 19C12.1 19 12.4 19 13.4 18.9C14.4 18.9 15.1 18.7 15.7 18.5C17 18 18 17 18.5 15.7C18.7 15.1 18.9 14.4 18.9 13.4C18.9 12.4 19 12.1 19 9.5C19 6.9 19 6.59999 18.9 5.59999ZM16.7 13.1C16.7 14 16.5 14.4 16.4 14.7C16.1 15.5 15.5 16.1 14.7 16.4C14.4 16.5 13.9 16.7 13.1 16.7C12.2 16.7 11.9 16.8 9.5 16.8C7.1 16.8 6.90002 16.8 5.90002 16.7C5.00002 16.7 4.59999 16.5 4.29999 16.4C3.89999 16.3 3.59999 16 3.29999 15.7C2.99999 15.4 2.79998 15.1 2.59998 14.7C2.49998 14.4 2.29999 13.9 2.29999 13.1C2.29999 12.2 2.20001 11.9 2.20001 9.5C2.20001 7.1 2.19999 6.89999 2.29999 5.89999C2.29999 4.99999 2.49998 4.6 2.59998 4.3C2.69998 3.9 2.99999 3.6 3.29999 3.3C3.59999 3 3.89999 2.79999 4.29999 2.59999C4.59999 2.49999 5.10002 2.3 5.90002 2.3C6.80002 2.3 7.1 2.2 9.5 2.2C11.9 2.2 12.1 2.2 13.1 2.3C14 2.3 14.4 2.49999 14.7 2.59999C15.1 2.69999 15.4 3 15.7 3.3C16 3.6 16.2 3.9 16.4 4.3C16.5 4.6 16.7 5.09999 16.7 5.89999C16.7 6.79999 16.8 7.1 16.8 9.5C16.8 11.9 16.7 12.2 16.7 13.1Z" fill="#253779"/>
<path d="M9.50012 4.60156C6.80012 4.60156 4.6001 6.80157 4.6001 9.50157C4.6001 12.2016 6.80012 14.4016 9.50012 14.4016C12.2001 14.4016 14.4001 12.2016 14.4001 9.50157C14.4001 6.80157 12.2001 4.60156 9.50012 4.60156ZM9.50012 12.5016C7.90012 12.5016 6.50012 11.2016 6.50012 9.50157C6.50012 7.90157 7.80012 6.50157 9.50012 6.50157C11.1001 6.50157 12.5001 7.80157 12.5001 9.50157C12.4001 11.1016 11.1001 12.5016 9.50012 12.5016Z" fill="#253779"/>
<path d="M15.3001 4.79996C15.3001 5.39996 14.8001 5.89995 14.2001 5.89995C13.6001 5.89995 13.1001 5.39996 13.1001 4.79996C13.1001 4.19996 13.6001 3.69995 14.2001 3.69995C14.8001 3.69995 15.3001 4.19996 15.3001 4.79996Z" fill="#253779"/>
</svg>
