<svg width="56" height="44" viewBox="0 0 56 44" fill="none" xmlns="http://www.w3.org/2000/svg">
<path d="M11.1559 13.9509C10.4251 13.9509 9.72422 14.2412 9.20746 14.7579C8.69069 15.2747 8.40039 15.9756 8.40039 16.7064V17.9508C8.41589 18.6713 8.71302 19.3571 9.22812 19.8611C9.74321 20.3651 10.4353 20.6473 11.1559 20.6472H17.9263C18.2875 20.6472 18.6451 20.5758 18.9785 20.4371C19.312 20.2984 19.6148 20.0953 19.8695 19.8392C20.1242 19.5831 20.3258 19.2792 20.4627 18.945C20.5995 18.6108 20.669 18.2528 20.6671 17.8916V16.6471C20.669 16.286 20.5995 15.928 20.4627 15.5938C20.3258 15.2595 20.1242 14.9556 19.8695 14.6996C19.6148 14.4435 19.312 14.2403 18.9785 14.1017C18.6451 13.963 18.2875 13.8916 17.9263 13.8916L11.1559 13.9509ZM18.8448 17.9508C18.8448 18.0715 18.821 18.1909 18.7749 18.3024C18.7287 18.4138 18.6611 18.5151 18.5758 18.6003C18.4905 18.6856 18.3892 18.7533 18.2778 18.7995C18.1663 18.8456 18.0469 18.8694 17.9263 18.8694H11.1559C11.0353 18.8694 10.9158 18.8456 10.8044 18.7995C10.693 18.7533 10.5917 18.6856 10.5064 18.6003C10.4211 18.5151 10.3535 18.4138 10.3073 18.3024C10.2611 18.1909 10.2374 18.0715 10.2374 17.9508V16.7064C10.2374 16.4628 10.3342 16.2292 10.5064 16.0569C10.6787 15.8846 10.9123 15.7879 11.1559 15.7879H17.9263C18.1699 15.7879 18.4035 15.8846 18.5758 16.0569C18.748 16.2292 18.8448 16.4628 18.8448 16.7064V17.9508Z" fill="#FBFBFB"/>
<path d="M55.1111 17.1959H49.4963C49.2527 17.1959 49.019 17.2927 48.8468 17.4649C48.6745 17.6372 48.5778 17.8708 48.5778 18.1144V21.6255H7.45185V10.3811C7.45185 10.1375 7.35509 9.90385 7.18284 9.73159C7.01058 9.55934 6.77694 9.46259 6.53334 9.46259H0.918511C0.674905 9.46259 0.441262 9.55934 0.269007 9.73159C0.0967511 9.90385 0 10.1375 0 10.3811V42.4996C0 42.7432 0.0967511 42.9768 0.269007 43.1491C0.441262 43.3213 0.674905 43.4181 0.918511 43.4181H6.53334C6.77694 43.4181 7.01058 43.3213 7.18284 43.1491C7.35509 42.9768 7.45185 42.7432 7.45185 42.4996V32.4996H48.5481V42.5292C48.5481 42.7728 48.6449 43.0065 48.8172 43.1787C48.9894 43.351 49.223 43.4478 49.4666 43.4478H55.0815C55.3251 43.4478 55.5586 43.351 55.7309 43.1787C55.9032 43.0065 56 42.7728 56 42.5292V18.1144C56.0001 17.8759 55.9074 17.6466 55.7415 17.4752C55.5756 17.3038 55.3495 17.2036 55.1111 17.1959ZM50.4148 41.5811V19.0329H54.2074V41.5811H50.4148ZM1.86668 41.5811V11.2996H5.64444V41.5811H1.86668ZM7.45185 23.4626H48.5481V30.6329H7.45185V23.4626Z" fill="#FBFBFB"/>
<path d="M27 18.24H32.3778C32.4685 18.2401 32.5584 18.2219 32.642 18.1868C32.7257 18.1516 32.8015 18.1001 32.865 18.0352C32.9284 17.9704 32.9783 17.8935 33.0117 17.8091C33.045 17.7247 33.0612 17.6345 33.0592 17.5437V12.9364H37.6814C37.7722 12.9364 37.862 12.9183 37.9457 12.8831C38.0294 12.8479 38.1052 12.7964 38.1686 12.7315C38.2321 12.6667 38.282 12.5898 38.3154 12.5054C38.3488 12.421 38.3649 12.3308 38.363 12.2401V6.90672C38.3649 6.81599 38.3488 6.72577 38.3154 6.64137C38.282 6.55697 38.2321 6.48009 38.1686 6.41523C38.1052 6.35037 38.0294 6.29885 37.9457 6.26368C37.862 6.22851 37.7722 6.2104 37.6814 6.21042H33.0592V1.60304C33.0612 1.5123 33.045 1.42209 33.0117 1.33769C32.9783 1.25329 32.9284 1.1764 32.865 1.11155C32.8015 1.04669 32.7257 0.995167 32.642 0.959997C32.5584 0.924827 32.4685 0.906717 32.3778 0.906738H27C26.8153 0.906738 26.6382 0.98006 26.5076 1.11064C26.377 1.24122 26.3037 1.41837 26.3037 1.60304V6.21042H21.6963C21.5116 6.21042 21.3345 6.28379 21.2039 6.41437C21.0733 6.54495 21 6.72205 21 6.90672V12.2845C21 12.4692 21.0733 12.6463 21.2039 12.7769C21.3345 12.9074 21.5116 12.9808 21.6963 12.9808H26.3037V17.5882C26.315 17.765 26.3933 17.9309 26.5227 18.052C26.6521 18.1732 26.8228 18.2404 27 18.24ZM22.3778 7.54374H27C27.1795 7.53996 27.3507 7.46697 27.4777 7.33998C27.6047 7.21298 27.6777 7.04183 27.6814 6.86228V2.24006H31.6963V6.90672C31.6963 7.08746 31.7681 7.26078 31.8959 7.38858C32.0237 7.51638 32.197 7.58819 32.3778 7.58819H37V11.603H32.3778C32.2877 11.601 32.1982 11.6172 32.1146 11.6508C32.031 11.6843 31.9551 11.7344 31.8914 11.7981C31.8277 11.8618 31.7776 11.9377 31.744 12.0213C31.7105 12.1049 31.6943 12.1945 31.6963 12.2845V16.9067H27.6814V12.2401C27.6814 12.0593 27.6096 11.886 27.4818 11.7582C27.354 11.6303 27.1807 11.5586 27 11.5586H22.3778V7.54374Z" fill="#FBFBFB"/>
</svg>
