<svg width="40" height="41" viewBox="0 0 40 41" fill="none" xmlns="http://www.w3.org/2000/svg">
<path d="M21.7361 0C18.8815 -1.46456e-08 16.0548 0.562293 13.4176 1.65477C10.7803 2.74725 8.38399 4.34851 6.36558 6.36713C4.34716 8.38575 2.74614 10.7822 1.65393 13.4196C0.561714 16.057 -0.000289051 18.8837 1.11528e-07 21.7383V40.0022H18.2617C24.027 40.0022 29.5563 37.7119 33.633 33.6352C37.7097 29.5585 40 24.0292 40 18.2639V0H21.7361ZM29.1782 22.9911H22.9889V29.1826H17.0089V22.9911H10.8196V17.0111H17.0089V10.8218H22.9889V17.0111H29.1672L29.1782 22.9911Z" fill="url(#paint0_linear_45_973)"/>
<path opacity="0.3" d="M1.12813e-07 21.7383V40.0022L17.0089 22.9911H10.8196V17.0111H17.0089V10.8218H22.9889V17L39.989 0H21.7141C15.9527 0.00583602 10.4294 2.29875 6.3578 6.37491C2.28618 10.4511 -0.000586448 15.977 1.12813e-07 21.7383Z" fill="white"/>
<defs>
<linearGradient id="paint0_linear_45_973" x1="22440" y1="31660.1" x2="22440" y2="38927.7" gradientUnits="userSpaceOnUse">
<stop stop-color="#4DC6E2"/>
<stop offset="0.82" stop-color="#86CDD3"/>
</linearGradient>
</defs>
</svg>
