<svg width="40" height="40" viewBox="0 0 40 40" fill="none" xmlns="http://www.w3.org/2000/svg">
<path d="M13.0229 19.2294L15.797 13.8727C15.8681 13.7373 15.9777 13.6261 16.112 13.553C16.2463 13.4799 16.3993 13.4484 16.5516 13.4623C16.7038 13.4762 16.8486 13.535 16.9674 13.6311C17.0863 13.7273 17.1739 13.8566 17.2193 14.0026L20.0066 23.0977L22.7939 14.0026C22.8385 13.8563 22.9256 13.7266 23.0442 13.63C23.1627 13.5334 23.3074 13.4743 23.4596 13.4601C23.6119 13.4459 23.765 13.4774 23.8993 13.5505C24.0336 13.6236 24.1432 13.735 24.214 13.8705L27.0101 19.2294H40V15.6561C40 15.0798 39.7711 14.527 39.3635 14.1195C38.956 13.712 38.4033 13.483 37.8269 13.483H26.5368L26.5169 11.6689V2.17305C26.5169 1.59672 26.288 1.04399 25.8805 0.636461C25.473 0.228935 24.9202 0 24.3439 0H15.6649C15.3796 -1.46712e-07 15.0972 0.0562149 14.8336 0.165448C14.5701 0.274681 14.3307 0.43478 14.1291 0.636596C13.9275 0.838411 13.7676 1.07798 13.6587 1.34162C13.5497 1.60525 13.4938 1.88778 13.4941 2.17305V13.483H2.17305C1.59672 13.483 1.044 13.712 0.636475 14.1195C0.228949 14.527 0 15.0798 0 15.6561V19.2294H13.0229Z" fill="url(#paint0_linear_45_981)"/>
<path d="M26.5368 20.7706C26.3961 20.7703 26.2582 20.7316 26.1379 20.6586C26.0177 20.5857 25.9196 20.4813 25.8543 20.3567L23.712 16.2506L20.7288 25.9534C20.6796 26.1105 20.5816 26.2479 20.4489 26.3454C20.3162 26.4429 20.1559 26.4955 19.9912 26.4955C19.8265 26.4955 19.6662 26.4429 19.5335 26.3454C19.4008 26.2479 19.3028 26.1105 19.2536 25.9534L16.2836 16.266L14.159 20.3633C14.094 20.4888 13.9957 20.594 13.8749 20.6674C13.7542 20.7408 13.6156 20.7795 13.4742 20.7795H0V24.3373C0 24.9137 0.228949 25.4664 0.636475 25.8739C1.044 26.2815 1.59672 26.5104 2.17305 26.5104H13.4852V37.8204C13.485 38.1057 13.5409 38.3882 13.6499 38.6518C13.7588 38.9155 13.9187 39.155 14.1203 39.3568C14.3219 39.5587 14.5613 39.7188 14.8248 39.828C15.0884 39.9372 15.3708 39.9934 15.6561 39.9934H24.3439C24.9202 39.9934 25.473 39.7645 25.8805 39.357C26.288 38.9494 26.5169 38.3967 26.5169 37.8204V26.517H37.8269C38.4033 26.517 38.956 26.2881 39.3635 25.8805C39.7711 25.473 40 24.9203 40 24.344V20.7706H26.5368Z" fill="url(#paint1_linear_45_981)"/>
<path opacity="0.3" d="M24.3439 1.54127e-05H15.6649C15.3796 1.5266e-05 15.0972 0.0562303 14.8336 0.165463C14.5701 0.274696 14.3307 0.434796 14.1291 0.636611C13.9275 0.838426 13.7676 1.078 13.6587 1.34163C13.5497 1.60527 13.4938 1.8878 13.4941 2.17307V13.4831H2.17305C1.59672 13.4831 1.044 13.712 0.636475 14.1195C0.228949 14.5271 0 15.0798 0 15.6561V19.2294H13.0229L15.797 13.8727C15.8681 13.7374 15.9777 13.6261 16.112 13.553C16.2463 13.48 16.3993 13.4484 16.5516 13.4623C16.7038 13.4762 16.8486 13.535 16.9674 13.6312C17.0863 13.7273 17.1739 13.8566 17.2193 14.0026L17.827 15.9842L26.2594 1.13166C26.0717 0.787941 25.7946 0.501331 25.4574 0.302127C25.1203 0.102924 24.7355 -0.00145933 24.3439 1.54127e-05Z" fill="white"/>
<path opacity="0.3" d="M16.2924 16.2572L14.1678 20.3545C14.1028 20.48 14.0045 20.5852 13.8837 20.6586C13.763 20.732 13.6244 20.7707 13.4831 20.7706H0V24.3373C0 24.9137 0.228949 25.4664 0.636475 25.8739C1.044 26.2814 1.59672 26.5104 2.17305 26.5104H11.845L16.7657 17.8314L16.2924 16.2572Z" fill="white"/>
<defs>
<linearGradient id="paint0_linear_45_981" x1="35347.6" y1="17944.9" x2="35347.6" y2="19943.1" gradientUnits="userSpaceOnUse">
<stop stop-color="#3E53A0"/>
<stop offset="0.82" stop-color="#86CDD3"/>
</linearGradient>
<linearGradient id="paint1_linear_45_981" x1="35347.6" y1="20571.4" x2="35347.6" y2="23175" gradientUnits="userSpaceOnUse">
<stop stop-color="#4CC5E1"/>
<stop offset="0.82" stop-color="#86CDD3"/>
</linearGradient>
</defs>
</svg>
