<svg width="40" height="36" viewBox="0 0 40 36" fill="none" xmlns="http://www.w3.org/2000/svg">
<path d="M7.80102 11.7829C7.8591 11.6697 7.94788 11.5752 8.0572 11.5102C8.16651 11.4453 8.29193 11.4124 8.41907 11.4154C8.54621 11.4184 8.66992 11.4572 8.77602 11.5274C8.88212 11.5975 8.96631 11.6961 9.01894 11.8118L11.304 16.8382H17.3452C17.4565 16.8384 17.5661 16.8661 17.6642 16.9187C17.7623 16.9713 17.8459 17.0472 17.9078 17.1397L18.4877 18.0174L19.0426 17.1513C19.1035 17.0553 19.1878 16.9762 19.2875 16.9215C19.3872 16.8667 19.4991 16.8381 19.6129 16.8382H20.7728L23.4271 9.35282C23.4773 9.21369 23.5717 9.0948 23.6958 9.01425C23.8199 8.93371 23.9669 8.89593 24.1144 8.90665C24.262 8.91738 24.402 8.97603 24.5131 9.07367C24.6243 9.17132 24.7004 9.30261 24.7301 9.44755L26.903 20.3237L29.2963 11.3382C29.3336 11.1965 29.4159 11.0708 29.5308 10.9798C29.6457 10.8889 29.787 10.8378 29.9335 10.8341C30.08 10.8304 30.2237 10.8743 30.3431 10.9593C30.4624 11.0443 30.551 11.1657 30.5954 11.3053L32.8418 18.3577L34.2105 16.177C34.272 16.0792 34.3577 15.9989 34.4593 15.9437C34.5608 15.8885 34.6749 15.8604 34.7904 15.8619H39.8167C40.33 12.5522 39.7583 9.16531 38.1871 6.2075C36.1514 2.41456 32.747 0.0347976 29.2943 0H29.2228C26.7599 0 23.2473 1.14058 20.0072 6.32156C16.7324 1.08259 13.1772 -0.019336 10.7105 0.00192919C7.26552 0.0367268 3.85923 2.4165 1.81777 6.20944C0.340801 8.96231 -0.554271 12.8577 0.385264 16.842H5.20087L7.80102 11.7829Z" fill="url(#paint0_linear_45_1001)"/>
<path d="M33.2184 20.3121C33.1499 20.4212 33.0516 20.5084 32.9352 20.5635C32.8187 20.6187 32.689 20.6394 32.5611 20.6234C32.4333 20.6064 32.3128 20.5537 32.2136 20.4713C32.1144 20.3888 32.0406 20.28 32.0005 20.1574L30.0151 13.9229L27.4691 23.4787C27.4308 23.6228 27.3459 23.7501 27.2278 23.841C27.1096 23.9319 26.9647 23.9812 26.8157 23.9813H26.7944C26.6418 23.9764 26.4954 23.9201 26.3789 23.8215C26.2623 23.7229 26.1826 23.5878 26.1526 23.4381L23.8907 12.125L21.8957 17.7467C21.8492 17.8787 21.7628 17.9929 21.6485 18.0736C21.5342 18.1543 21.3976 18.1975 21.2577 18.1972H19.9857L19.0751 19.6258C19.0147 19.721 18.9314 19.7996 18.8329 19.8544C18.7343 19.9092 18.6236 19.9385 18.5109 19.9397C18.3981 19.9408 18.2869 19.9138 18.1873 19.861C18.0876 19.8082 18.0027 19.7313 17.9404 19.6374L16.9738 18.1972H10.8668C10.7381 18.1983 10.6117 18.1625 10.5027 18.0939C10.3938 18.0254 10.3068 17.9271 10.252 17.8105L8.36521 13.6561L6.21743 17.8299C6.16079 17.9406 6.07466 18.0334 5.96857 18.0982C5.86247 18.1631 5.74053 18.1973 5.6162 18.1972H0.783203C1.17161 19.3311 1.69818 20.4128 2.35103 21.4179C5.59107 26.4113 11.2689 30.8442 19.7092 34.9735L20.005 35.1204L20.3027 34.9735C28.7411 30.8442 34.4151 26.4113 37.6609 21.4179C38.5036 20.1253 39.1346 18.7065 39.5303 17.2151H35.1652L33.2184 20.3121Z" fill="url(#paint1_linear_45_1001)"/>
<path opacity="0.3" d="M19.7073 34.9736L20.003 35.1205L20.121 35.0625C19.8632 34.9194 19.6054 34.7686 19.3477 34.6101C16.879 33.0423 14.8665 30.8597 12.9797 28.6172C10.9112 26.1678 8.9432 23.5909 7.50297 20.7355C7.28258 20.2948 7.07186 19.8463 6.87661 19.3823C6.64656 18.8468 6.43777 18.2997 6.25025 17.7449L6.21352 17.8164C6.15688 17.9271 6.07076 18.0199 5.96466 18.0848C5.85857 18.1496 5.73662 18.1838 5.6123 18.1837H0.779297C1.1679 19.3224 1.6958 20.4088 2.35099 21.418C5.5891 26.4114 11.2669 30.8442 19.7073 34.9736Z" fill="white"/>
<path opacity="0.3" d="M0.387165 16.844H5.20277L5.71506 15.8445C5.35513 14.3055 5.25064 12.7178 5.40575 11.1449C5.87939 6.82806 8.63227 2.75094 12.0908 0.212647L12.2087 0.127586C11.7448 0.0445591 11.2745 0.00187436 10.8032 0C7.32349 0.0425304 3.87852 2.4397 1.8274 6.26163C0.761971 8.2823 0.14914 10.5107 0.0314564 12.792V12.8171C0.0237236 12.9653 0.0179247 13.1142 0.0140583 13.2637C-0.00963937 14.4679 0.115679 15.6705 0.387165 16.844Z" fill="white"/>
<defs>
<linearGradient id="paint0_linear_45_1001" x1="9532.4" y1="7344.59" x2="9532.4" y2="10650.7" gradientUnits="userSpaceOnUse">
<stop stop-color="#4CC5E1"/>
<stop offset="0.82" stop-color="#4CC5E1"/>
</linearGradient>
<linearGradient id="paint1_linear_45_1001" x1="9264.83" y1="12264.3" x2="9264.83" y2="14994.1" gradientUnits="userSpaceOnUse">
<stop stop-color="#3E53A0"/>
<stop offset="0.82" stop-color="#86CDD3"/>
</linearGradient>
</defs>
</svg>
