<svg width="20" height="20" viewBox="0 0 20 20" fill="none" xmlns="http://www.w3.org/2000/svg">
<path fill-rule="evenodd" clip-rule="evenodd" d="M10 0C15.514 0 20 4.486 20 10C20 15.514 15.514 20 10 20C4.486 20 0 15.514 0 10C0 4.486 4.486 0 10 0ZM10 1.6C5.36966 1.6 1.6 5.36966 1.6 10C1.6 14.6303 5.36966 18.4 10 18.4C14.6303 18.4 18.4 14.6303 18.4 10C18.4 5.36966 14.6303 1.6 10 1.6ZM10 15.5C10.414 15.5 10.75 15.164 10.75 14.75V9.25C10.75 8.836 10.414 8.5 10 8.5C9.586 8.5 9.25 8.836 9.25 9.25V14.75C9.25 15.164 9.586 15.5 10 15.5ZM9 6C9 6.5525 9.4475 7 10 7C10.5525 7 11 6.5525 11 6C11 5.4475 10.5525 5 10 5C9.4475 5 9 5.4475 9 6Z" fill="#253779"/>
</svg>
