<svg width="40" height="36" viewBox="0 0 40 36" fill="none" xmlns="http://www.w3.org/2000/svg">
<path d="M38.1701 6.2777C36.1175 2.45081 32.6733 0.0522459 29.1808 0.0174561H29.0977C26.6546 0.0174561 23.1988 1.1172 19.9982 6.04577C16.7994 1.1172 13.3436 0.0174561 10.9006 0.0174561H10.8156C7.32306 0.0522459 3.87887 2.45081 1.82627 6.2777C-0.226335 10.1046 -1.16179 16.1194 2.35971 21.5466C5.58551 26.5138 11.2234 30.9205 19.5962 35.018L19.9982 35.2113L20.4002 35.018C28.7749 30.9205 34.4128 26.5138 37.6366 21.5466C41.1639 16.1155 40.2266 10.0969 38.1701 6.2777ZM27.708 19.3336C27.708 19.5555 27.6198 19.7684 27.4629 19.9253C27.3059 20.0823 27.0931 20.1705 26.8711 20.1705H22.5146V24.5308C22.5149 24.6409 22.4934 24.7499 22.4515 24.8516C22.4096 24.9534 22.3479 25.0459 22.2702 25.1238C22.1925 25.2017 22.1001 25.2635 21.9985 25.3057C21.8968 25.3479 21.7878 25.3696 21.6778 25.3696H18.3283C18.1058 25.3696 17.8924 25.2812 17.7351 25.1239C17.5778 24.9666 17.4894 24.7533 17.4894 24.5308V20.1666H13.1291C12.9072 20.1666 12.6943 20.0784 12.5373 19.9215C12.3804 19.7645 12.2922 19.5517 12.2922 19.3297V15.9802C12.2922 15.7583 12.3804 15.5454 12.5373 15.3884C12.6943 15.2315 12.9072 15.1433 13.1291 15.1433H17.4894V10.783C17.4894 10.6729 17.5112 10.5639 17.5533 10.4623C17.5955 10.3606 17.6573 10.2683 17.7352 10.1905C17.8132 10.1128 17.9057 10.0512 18.0074 10.0092C18.1092 9.96731 18.2182 9.94584 18.3283 9.9461H21.6778C21.8997 9.9461 22.1126 10.0343 22.2695 10.1912C22.4265 10.3482 22.5146 10.561 22.5146 10.783V14.4437V15.1433H26.8672C26.9771 15.1433 27.086 15.165 27.1875 15.207C27.289 15.2491 27.3813 15.3107 27.459 15.3884C27.5367 15.4662 27.5984 15.5584 27.6404 15.6599C27.6825 15.7615 27.7041 15.8703 27.7041 15.9802L27.708 19.3336Z" fill="url(#paint0_linear_45_992)"/>
<path d="M19.3507 34.6159C16.8826 33.0484 14.8706 30.8663 12.9842 28.6243C10.9161 26.1755 8.94857 23.5991 7.50865 20.7444C7.28832 20.3038 7.07764 19.8554 6.8805 19.3915C5.77302 16.8035 5.10235 13.9411 5.40773 11.1444C5.88126 6.82848 8.63353 2.75033 12.0913 0.214538C12.1376 0.177815 12.1879 0.144956 12.2362 0.110166C11.7961 0.0372978 11.3507 0.000454551 10.9045 0H10.8195C7.32697 0.0347899 3.88278 2.43336 1.83018 6.26024C-0.222426 10.0871 -1.15789 16.1019 2.36362 21.5291C5.58941 26.4963 11.2273 30.9031 19.6001 35.0005L20.0021 35.1938L20.1954 35.0972C19.9132 34.958 19.6291 34.7899 19.3507 34.6159Z" fill="url(#paint1_linear_45_992)"/>
<path opacity="0.3" d="M19.3507 34.6159C16.8826 33.0484 14.8706 30.8663 12.9842 28.6243C10.9161 26.1755 8.94857 23.5991 7.50865 20.7444C7.28832 20.3038 7.07764 19.8554 6.8805 19.3915C5.77302 16.8035 5.10235 13.9411 5.40773 11.1444C5.88126 6.82848 8.63353 2.75033 12.0913 0.214538C12.1376 0.177815 12.1879 0.144956 12.2362 0.110166C11.7961 0.0372978 11.3507 0.000454551 10.9045 0H10.8195C7.32697 0.0347899 3.88278 2.43336 1.83018 6.26024C-0.222426 10.0871 -1.15789 16.1019 2.36362 21.5291C5.58941 26.4963 11.2273 30.9031 19.6001 35.0005L20.0021 35.1938L20.1954 35.0972C19.9132 34.958 19.6291 34.7899 19.3507 34.6159Z" fill="white"/>
<defs>
<linearGradient id="paint0_linear_45_992" x1="27145.6" y1="11632.3" x2="21340.5" y2="5034.41" gradientUnits="userSpaceOnUse">
<stop stop-color="#3E53A0"/>
<stop offset="0.82" stop-color="#3E53A0"/>
</linearGradient>
<linearGradient id="paint1_linear_45_992" x1="2.79076" y1="6.70478" x2="20.609" y2="24.5249" gradientUnits="userSpaceOnUse">
<stop stop-color="#2C96AF"/>
<stop offset="0.546875" stop-color="#4CC5E1"/>
<stop offset="1" stop-color="#4CC5E1"/>
</linearGradient>
</defs>
</svg>
