<svg width="56" height="62" viewBox="0 0 56 62" fill="none" xmlns="http://www.w3.org/2000/svg">
<path d="M9.43067 48.816H18.9644V53.7976H10.3754C10.026 53.802 9.69213 53.9428 9.44503 54.1899C9.19793 54.437 9.05715 54.7709 9.0527 55.1203V59.7755C9.05267 60.1279 9.19148 60.4661 9.43905 60.7169C9.68663 60.9677 10.0231 61.1108 10.3754 61.1154H45.6246C45.9799 61.1154 46.3207 60.9742 46.572 60.7229C46.8232 60.4716 46.9644 60.1308 46.9644 59.7755V55.1203C46.9599 54.7679 46.8168 54.4315 46.566 54.1839C46.3152 53.9363 45.977 53.7975 45.6246 53.7976H37.0356V48.816H46.5693C49.0705 48.816 51.4692 47.8224 53.2378 46.0538C55.0064 44.2852 56 41.8865 56 39.3853V10.3374C56 7.83623 55.0064 5.43752 53.2378 3.66893C51.4692 1.90033 49.0705 0.906738 46.5693 0.906738H9.43067C6.93089 0.911279 4.53481 1.90632 2.76719 3.67393C0.999581 5.44154 0.00454093 7.83763 0 10.3374V39.3853C0.00454093 41.8851 0.999581 44.2812 2.76719 46.0488C4.53481 47.8164 6.93089 48.8114 9.43067 48.816ZM2.66256 10.3374C2.66256 9.4486 2.83764 8.56852 3.17777 7.74737C3.5179 6.92623 4.0164 6.18012 4.64488 5.55164C5.27335 4.92316 6.01941 4.42464 6.84056 4.08451C7.6617 3.74438 8.54187 3.5693 9.43067 3.5693H46.6037C47.494 3.56704 48.3758 3.74044 49.199 4.07955C50.0221 4.41867 50.7702 4.91686 51.4005 5.54556C52.0308 6.17426 52.5309 6.92112 52.8721 7.74339C53.2133 8.56565 53.3889 9.44716 53.3889 10.3374V39.3853C53.3667 41.1779 52.6446 42.8909 51.3769 44.1586C50.1092 45.4263 48.3964 46.1483 46.6037 46.1706H9.43067C7.64101 46.1439 5.93237 45.4199 4.66836 44.1526C3.40435 42.8854 2.68473 41.175 2.66256 39.3853V10.3374ZM44.319 58.4356H11.681V56.443H44.319V58.4356ZM21.627 53.7804V48.7988H34.4245V53.7804H21.627Z" fill="#FBFBFB"/>
<path d="M9.08706 26.6736V31.7067C9.08706 32.9452 9.331 34.1715 9.80494 35.3157C10.2789 36.4599 10.9735 37.4995 11.8492 38.3752C12.7249 39.2509 13.7645 39.9456 14.9087 40.4195C16.0529 40.8935 17.2793 41.1374 18.5177 41.1374H37.5509C40.0536 41.1374 42.4542 40.1444 44.2255 38.3763C45.9968 36.6082 46.9942 34.2095 46.9988 31.7067V26.7766C47.1591 26.6802 47.2922 26.5443 47.3854 26.382C47.4786 26.2196 47.5288 26.0362 47.5313 25.849C47.5292 25.6641 47.479 25.4829 47.3856 25.3233C47.2923 25.1636 47.1589 25.0311 46.9988 24.9386V18.0674C46.9942 15.5631 45.9974 13.1626 44.2265 11.3918C42.4557 9.62096 40.0552 8.62411 37.5509 8.61957H18.5005C15.9978 8.62412 13.5991 9.62154 11.831 11.3929C10.0629 13.1642 9.06986 15.5647 9.06986 18.0674V25.0589C8.94783 25.1591 8.84927 25.2849 8.78101 25.4273C8.71276 25.5698 8.6765 25.7254 8.6748 25.8834C8.68001 26.0376 8.71973 26.1886 8.79108 26.3253C8.86243 26.4621 8.96359 26.5811 9.08706 26.6736ZM18.5177 11.2135H37.5509C39.3585 11.2133 41.0933 11.9254 42.3795 13.1955C43.6656 14.4656 44.3995 16.1913 44.4221 17.9987V24.7496H39.2687L37.5509 18.6171C37.4914 18.4022 37.3638 18.2123 37.1873 18.076C37.0107 17.9397 36.7948 17.8644 36.5717 17.8613C36.3427 17.8528 36.1171 17.9184 35.9283 18.0484C35.7395 18.1784 35.5977 18.3658 35.5239 18.5828L32.2601 28.1165L28.8245 15.5079C28.7678 15.3105 28.6552 15.1337 28.5003 14.9989C28.3454 14.864 28.1549 14.7768 27.9515 14.7477C27.7482 14.7187 27.5408 14.749 27.3543 14.8351C27.1679 14.9213 27.0103 15.0595 26.9006 15.2331L21.1116 24.784H11.7324V18.0331C11.7546 16.2434 12.4743 14.5329 13.7383 13.2657C15.0023 11.9985 16.7109 11.2745 18.5005 11.2478L18.5177 11.2135ZM37.5509 38.4405H18.5005C16.7138 38.4138 15.0077 37.6922 13.7442 36.4287C12.4807 35.1652 11.759 33.4591 11.7324 31.6723V26.8797H21.7128C21.8961 26.8794 22.0762 26.8318 22.2357 26.7415C22.3951 26.6512 22.5287 26.5213 22.6233 26.3644L27.3472 18.4797L31.0061 32.0159C31.0675 32.2359 31.1969 32.4308 31.3759 32.5728C31.5549 32.7147 31.7742 32.7964 32.0025 32.8061C32.2251 32.8047 32.4418 32.7347 32.6231 32.6055C32.8045 32.4764 32.9417 32.2945 33.0159 32.0846L36.3312 22.4306L37.4134 26.1239C37.477 26.343 37.6105 26.5355 37.7934 26.6719C37.9763 26.8083 38.1988 26.8813 38.427 26.8797H44.2846V31.6723C44.267 33.4621 43.5517 35.1744 42.2909 36.4448C41.0301 37.7153 39.3233 38.4436 37.5337 38.4748L37.5509 38.4405ZM46.4662 26.4159H38.4613C38.346 26.4171 38.2336 26.381 38.1407 26.3128C38.0477 26.2447 37.9794 26.1483 37.946 26.038L36.4 20.7472L32.535 31.9816C32.5017 32.0872 32.4352 32.1794 32.3455 32.2444C32.2558 32.3094 32.1475 32.3437 32.0367 32.3423V32.6171V32.3423C31.9215 32.3416 31.8098 32.3023 31.7195 32.2307C31.6292 32.1591 31.5655 32.0593 31.5386 31.9472L27.5533 17.2085L22.1766 26.1582C22.1314 26.2366 22.0663 26.3017 21.9879 26.3469C21.9095 26.3922 21.8205 26.416 21.73 26.4159H9.70544C9.56421 26.4159 9.4288 26.3598 9.32894 26.2599C9.22907 26.1601 9.17293 26.0246 9.17293 25.8834C9.17293 25.7422 9.22907 25.6067 9.32894 25.5068C9.4288 25.407 9.56421 25.3509 9.70544 25.3509H21.3693L27.2269 15.5766C27.286 15.4914 27.366 15.4229 27.4593 15.3778C27.5526 15.3326 27.656 15.3124 27.7595 15.319C27.8625 15.3386 27.9584 15.3857 28.037 15.4552C28.1156 15.5247 28.174 15.6142 28.2061 15.7141L32.0711 30.0061L35.9018 18.8233C35.9382 18.7162 36.0079 18.6235 36.1006 18.5587C36.1932 18.4938 36.304 18.4601 36.4171 18.4625C36.5294 18.465 36.6381 18.5028 36.7275 18.5707C36.817 18.6385 36.8827 18.733 36.9153 18.8405L38.822 25.3509H46.4147C46.5559 25.3509 46.6914 25.407 46.7913 25.5068C46.8911 25.6067 46.9472 25.7422 46.9472 25.8834C46.9472 26.0246 46.8911 26.1601 46.7913 26.2599C46.6914 26.3598 46.5559 26.4159 46.4147 26.4159H46.4662Z" fill="#FBFBFB"/>
</svg>
