<svg width="18" height="13" viewBox="0 0 18 13" fill="none" xmlns="http://www.w3.org/2000/svg">
<path d="M17.0072 0.374095C16.8253 0.187045 16.4616 0 16.1887 0C15.9159 0 15.5521 0.0935195 15.3702 0.374095L5.82067 10.1942L2.00086 6.2662C1.81896 6.07915 1.45521 5.89208 1.18236 5.89208C0.909521 5.89208 0.545708 5.98563 0.363813 6.2662C0.181918 6.45325 0 6.82735 0 7.10792C0 7.3885 0.0909699 7.76259 0.363813 7.94964L4.9112 12.6259C5.09309 12.813 5.45691 13 5.72975 13C6.00259 13 6.36635 12.9065 6.54824 12.6259L16.9163 1.96404C17.0982 1.77698 17.2801 1.40289 17.2801 1.12231C17.371 0.841738 17.2801 0.561146 17.0072 0.374095Z" fill="#4DC6E2"/>
</svg>
