<svg width="9" height="19" viewBox="0 0 9 19" fill="none" xmlns="http://www.w3.org/2000/svg">
<path d="M8.5 9.10001V8.80002C8.5 8.50002 8.39995 8.19999 8.19995 7.89999C7.99995 7.59999 7.69996 7.5 7.39996 7.5H5.5V4.5C5.5 3.5 5.69995 2.20001 7.69995 2.20001H7.89996C8.49996 2.20001 9 1.70001 9 1.10001C9 0.500006 8.49996 0 7.89996 0C7.59996 0 7.19999 0 6.79999 0C4.29999 0 2.89996 1.60001 2.89996 4.20001V7.5H1.09998C0.499976 7.5 0 8.00001 0 8.60001V8.89999C0 9.49999 0.499976 10 1.09998 10H2.89996V17.8C2.89996 18.4 3.4 18.9 4 18.9H4.29999C4.89999 18.9 5.39996 18.4 5.39996 17.8V10H7.29999C7.99999 10.1 8.4 9.70001 8.5 9.10001Z" fill="#253779"/>
</svg>
